<svg xmlns="http://www.w3.org/2000/svg" xmlns:xlink="http://www.w3.org/1999/xlink" xmlns:lucid="lucid" width="2181.76" height="1691.04"><g transform="translate(-1083.4045332415608 103.00347874764009)" lucid:page-tab-id="0_0"><path d="M1000-500h2500v2500H1000z" fill="#f2f3f5"/><path d="M1196.9 637.1c0 30.92-25.07 56-56 56-30.92 0-56-25.08-56-56 0-30.93 25.08-56 56-56 30.93 0 56 25.07 56 56z" stroke="#000" stroke-width="3"/><path d="M1514.3 585.6c28.43 0 51.5 23.05 51.5 51.5 0 28.44-23.07 51.5-51.5 51.5h-153c-28.46 0-51.5-23.06-51.5-51.5 0-28.45 23.04-51.5 51.5-51.5z" stroke="#3a414a" stroke-width="3" fill="#fff"/><use xlink:href="#a" transform="matrix(1,0,0,1,1322.5855999540943,590.7456203101668) translate(34.8277777777778 52.76875)"/><use xlink:href="#b" transform="matrix(1,0,0,1,1322.5855999540943,590.7456203101668) translate(116.94444444444444 52.76875)"/><path d="M1199.9 637.1h90.9" stroke="#3a414a" stroke-width="3" fill="none"/><path d="M1199.94 638.57h-1.6l.07-1.46-.03-1.48h1.57z" stroke="#3a414a" stroke-width=".05" fill="#3a414a"/><path d="M1305.3 637.1l-13 7.5v-15z" stroke="#3a414a" stroke-width="3" fill="#3a414a"/><path d="M1845.83 585.6c28.45 0 51.5 23.05 51.5 51.5 0 28.44-23.05 51.5-51.5 51.5h-153c-28.44 0-51.5-23.06-51.5-51.5 0-28.45 23.06-51.5 51.5-51.5z" stroke="#3a414a" stroke-width="3" fill="#fff"/><use xlink:href="#c" transform="matrix(1,0,0,1,1654.1333333332946,590.7456203101668) translate(34.03333333333333 52.76875)"/><use xlink:href="#d" transform="matrix(1,0,0,1,1654.1333333332946,590.7456203101668) translate(153.63333333333333 52.76875)"/><path d="M1568.8 637.1h53.54" stroke="#3a414a" stroke-width="3" fill="none"/><path d="M1568.82 638.57h-1.6l.07-1.45-.02-1-.04-.5h1.58z" stroke="#3a414a" stroke-width=".05" fill="#3a414a"/><path d="M1636.83 637.1l-13 7.5v-15z" stroke="#3a414a" stroke-width="3" fill="#3a414a"/><path d="M2177.38 585.6c28.44 0 51.5 23.05 51.5 51.5 0 28.44-23.06 51.5-51.5 51.5h-153c-28.44 0-51.5-23.06-51.5-51.5 0-28.45 23.06-51.5 51.5-51.5z" stroke="#3a414a" stroke-width="3" fill="#fff"/><use xlink:href="#e" transform="matrix(1,0,0,1,1985.6810667124948,590.7456203101668) translate(39.775000000000006 35.33125)"/><use xlink:href="#f" transform="matrix(1,0,0,1,1985.6810667124948,590.7456203101668) translate(126.29722222222222 35.33125)"/><use xlink:href="#g" transform="matrix(1,0,0,1,1985.6810667124948,590.7456203101668) translate(67.25555555555556 66.53125)"/><path d="M1900.33 637.1h53.56" stroke="#3a414a" stroke-width="3" fill="none"/><path d="M1900.37 638.57h-1.6l.06-1.45v-1l-.04-.5h1.57z" stroke="#3a414a" stroke-width=".05" fill="#3a414a"/><path d="M1968.38 637.1l-13 7.5v-15z" stroke="#3a414a" stroke-width="3" fill="#3a414a"/><path d="M2231.88 637.1h84.68" stroke="#3a414a" stroke-width="3" fill="none"/><path d="M2231.92 638.57h-1.6l.06-1.45v-1l-.04-.5h1.58z" stroke="#3a414a" stroke-width=".05" fill="#3a414a"/><path d="M2331.05 637.1l-13 7.5v-15z" stroke="#3a414a" stroke-width="3" fill="#3a414a"/><path d="M2490.33 382.43c22.1 0 40 17.9 40 40s-17.9 40-40 40h-176c-22.1 0-40-17.9-40-40s17.9-40 40-40z" stroke="#3a414a" stroke-width="3" fill="#fff"/><use xlink:href="#e" transform="matrix(1,0,0,1,2287.1333333333723,386.42895364353905) translate(26.01666666666668 41.05)"/><use xlink:href="#h" transform="matrix(1,0,0,1,2287.1333333333723,386.42895364353905) translate(112.53888888888889 41.05)"/><path d="M2403.8 567.3h-2.94v-29.97h2.95zm0-51.3h-2.94v-34.58h2.95z" stroke="#3a414a" stroke-width=".05" fill="#3a414a"/><path d="M2403.8 568.98l-.3-.07-1.17-.1-1.17.1-.3.08v-1.7h2.95z" fill="#3a414a"/><path stroke="#3a414a" stroke-width=".05" fill="#3a414a"/><path d="M2409.83 479.92h-15l7.5-13z" fill="#3a414a"/><path d="M2412.4 481.4h-20.12l10.05-17.42zm-15-2.96h9.88l-4.95-8.56z" stroke="#3a414a" stroke-width=".05" fill="#3a414a"/><use xlink:href="#i" transform="matrix(1,0,0,1,2349.6172841373104,515.999999999976) translate(0 14.222222222222223)"/><use xlink:href="#j" transform="matrix(1,0,0,1,2349.6172841373104,515.999999999976) translate(65.92592592592592 14.222222222222223)"/><path d="M2490.33 811.76c22.1 0 40 17.9 40 40s-17.9 40-40 40h-176c-22.1 0-40-17.9-40-40s17.9-40 40-40z" stroke="#3a414a" stroke-width="3" fill="#fff"/><use xlink:href="#k" transform="matrix(1,0,0,1,2287.133333333373,815.7622869767947) translate(10.27222222222224 41.05)"/><use xlink:href="#l" transform="matrix(1,0,0,1,2287.133333333373,815.7622869767947) translate(131.4611111111111 41.05)"/><path d="M2403.8 792.77h-2.94v-10.1h2.95zm0-31.44h-2.94v-54.45h2.95z" stroke="#3a414a" stroke-width=".05" fill="#3a414a"/><path d="M2403.8 706.92h-2.94v-1.54h2.95z" stroke="#3a414a" stroke-width=".05" fill="#3a414a"/><path d="M2402.33 807.26l-7.5-13h15z" fill="#3a414a"/><path d="M2402.33 810.2l-10.05-17.4h20.1zm-4.94-14.45l4.93 8.56 4.95-8.55z" stroke="#3a414a" stroke-width=".05" fill="#3a414a"/><use xlink:href="#m" transform="matrix(1,0,0,1,2347.617284137664,761.333333333011) translate(0 14.222222222222223)"/><use xlink:href="#j" transform="matrix(1,0,0,1,2347.617284137664,761.333333333011) translate(69.92592592592592 14.222222222222223)"/><path d="M2398.1 572.08a6 6 0 0 1 8.48 0l60.77 60.77a6 6 0 0 1 0 8.5l-60.77 60.77a6 6 0 0 1-8.5 0l-60.77-60.78a6 6 0 0 1 0-8.5zM2746.1 785.74a6 6 0 0 1 8.48 0l60.77 60.78a6 6 0 0 1 0 8.5l-60.77 60.76a6 6 0 0 1-8.5 0L2685.32 855a6 6 0 0 1 0-8.48z" stroke="#3a414a" stroke-width="3" fill="#fff"/><path d="M2533.34 851.75l131.22-.87" stroke="#3a414a" stroke-width="3" stroke-linejoin="round" fill="none"/><path d="M2533.4 853.23h-1.66l.1-1.45-.06-1.5h1.58z" stroke="#3a414a" stroke-width=".05" fill="#3a414a"/><path d="M2679.05 850.78l-12.94 7.6-.1-15z" stroke="#3a414a" stroke-width="3" fill="#3a414a"/><path d="M2838.33 382.43c22.1 0 40 17.9 40 40s-17.9 40-40 40h-176c-22.1 0-40-17.9-40-40s17.9-40 40-40z" stroke="#3a414a" stroke-width="3" fill="#fff"/><use xlink:href="#n" transform="matrix(1,0,0,1,2635.1333333333723,386.42895364353905) translate(15.219444444444463 41.05)"/><use xlink:href="#o" transform="matrix(1,0,0,1,2635.1333333333723,386.42895364353905) translate(165.225 41.05)"/><path d="M2751.8 780.98h-2.94v-43.65h2.95zm0-64.98h-2.94V481.42h2.95z" stroke="#3a414a" stroke-width=".05" fill="#3a414a"/><path d="M2751.8 782.64l-.3-.07-1.17-.1-1.17.1-.3.07v-1.7h2.95z" fill="#3a414a"/><path stroke="#3a414a" stroke-width=".05" fill="#3a414a"/><path d="M2757.83 479.92h-15l7.5-13z" fill="#3a414a"/><path d="M2760.4 481.4h-20.12l10.05-17.42zm-15-2.96h9.88l-4.95-8.56z" stroke="#3a414a" stroke-width=".05" fill="#3a414a"/><use xlink:href="#i" transform="matrix(1,0,0,1,2697.6172841366633,715.9999999999999) translate(0 14.222222222222223)"/><use xlink:href="#j" transform="matrix(1,0,0,1,2697.6172841366633,715.9999999999999) translate(65.92592592592592 14.222222222222223)"/><path d="M2619.33 422.43h-70" stroke="#3a414a" stroke-width="3" stroke-linejoin="round" fill="none"/><path d="M2620.83 422.4l.06 1.5h-1.6v-2.95h1.62z" stroke="#3a414a" stroke-width=".05" fill="#3a414a"/><path d="M2534.83 422.43l13-7.5v15z" stroke="#3a414a" stroke-width="3" fill="#3a414a"/><path d="M2096.64 357.4a6 6 0 0 1 8.48 0l60.78 60.8a6 6 0 0 1 0 8.47l-60.78 60.78a6 6 0 0 1-8.48 0l-60.78-60.78a6 6 0 0 1 0-8.48z" stroke="#3a414a" stroke-width="3" fill="#fff"/><path d="M2271.33 422.43h-84.68" stroke="#3a414a" stroke-width="3" stroke-linejoin="round" fill="none"/><path d="M2272.83 422.4l.06 1.5h-1.6v-2.95h1.62z" stroke="#3a414a" stroke-width=".05" fill="#3a414a"/><path d="M2172.16 422.43l13-7.5v15z" stroke="#3a414a" stroke-width="3" fill="#3a414a"/><path d="M2102.36 566.6h-2.95v-23.93h2.96zm0-45.27h-2.95V492.2h2.96z" stroke="#3a414a" stroke-width=".05" fill="#3a414a"/><path d="M2099.7 490.62l1.18.1 1.17-.1.3-.07v1.7h-2.94v-1.7z" fill="#3a414a"/><path stroke="#3a414a" stroke-width=".05" fill="#3a414a"/><path d="M2100.88 581.1l-7.5-13h15z" fill="#3a414a"/><path d="M2100.88 584.05l-10.05-17.42h20.1zm-4.94-14.47l4.94 8.57 4.95-8.57z" stroke="#3a414a" stroke-width=".05" fill="#3a414a"/><use xlink:href="#p" transform="matrix(1,0,0,1,2041.967486651627,521.3333333333334) translate(0 14.222222222222223)"/><use xlink:href="#q" transform="matrix(1,0,0,1,2041.967486651627,521.3333333333334) translate(52.83950617283951 14.222222222222223)"/><path d="M1845.83 370.93c28.45 0 51.5 23.06 51.5 51.5s-23.05 51.5-51.5 51.5h-153c-28.44 0-51.5-23.06-51.5-51.5s23.06-51.5 51.5-51.5z" stroke="#3a414a" stroke-width="3" fill="#fff"/><use xlink:href="#r" transform="matrix(1,0,0,1,1654.1333333332946,376.07895364353897) translate(31.79444444444445 52.76875)"/><use xlink:href="#s" transform="matrix(1,0,0,1,1654.1333333332946,376.07895364353897) translate(85.09444444444445 52.76875)"/><use xlink:href="#t" transform="matrix(1,0,0,1,1654.1333333332946,376.07895364353897) translate(135.65 52.76875)"/><path d="M1943.57 423.9h-27.25v-2.95h27.25zm87.53 0h-43.24v-2.95h43.24z" stroke="#3a414a" stroke-width=".05" fill="#3a414a"/><path d="M2032.7 421.25l-.1 1.18.1 1.17.06.3h-1.7v-2.95h1.7z" fill="#3a414a"/><path stroke="#3a414a" stroke-width=".05" fill="#3a414a"/><path d="M1914.82 429.93l-13-7.5 13-7.5z" fill="#3a414a"/><path d="M1916.3 432.48l-17.42-10.05 17.42-10.06zm-11.52-10.05l8.57 4.94v-9.9z" stroke="#3a414a" stroke-width=".05" fill="#3a414a"/><use xlink:href="#u" transform="matrix(1,0,0,1,1943.5668204774288,401.09562049361375) translate(0 14.222222222222223)"/><use xlink:href="#v" transform="matrix(1,0,0,1,1943.5668204774288,401.09562049361375) translate(0 35.55555555555556)"/><path d="M2188.88 158.43c22.1 0 40 17.9 40 40s-17.9 40-40 40h-176c-22.1 0-40-17.9-40-40s17.9-40 40-40z" stroke="#3a414a" stroke-width="3" fill="#fff"/><use xlink:href="#w" transform="matrix(1,0,0,1,1985.6810667125508,162.428953643539) translate(17.38611111111112 41.05)"/><use xlink:href="#h" transform="matrix(1,0,0,1,1985.6810667125508,162.428953643539) translate(121.16944444444445 41.05)"/><path d="M2102.36 352.64h-2.95v-33.97h2.96zm0-55.3h-2.95V257.4h2.96z" stroke="#3a414a" stroke-width=".05" fill="#3a414a"/><path d="M2102.36 354.3l-.3-.06-1.18-.1-1.17.1-.3.07v-1.7h2.96z" fill="#3a414a"/><path stroke="#3a414a" stroke-width=".05" fill="#3a414a"/><path d="M2108.38 255.92h-15l7.5-13z" fill="#3a414a"/><path d="M2110.94 257.4h-20.1l10.04-17.42zm-15-2.96h9.9l-4.96-8.56z" stroke="#3a414a" stroke-width=".05" fill="#3a414a"/><use xlink:href="#x" transform="matrix(1,0,0,1,2005.819338503479,297.3333333333333) translate(0 14.222222222222223)"/><use xlink:href="#y" transform="matrix(1,0,0,1,2005.819338503479,297.3333333333333) translate(47.35802469135803 14.222222222222223)"/><use xlink:href="#z" transform="matrix(1,0,0,1,2005.819338503479,297.3333333333333) translate(117.18518518518519 14.222222222222223)"/><path d="M1777.1 133.4a6 6 0 0 1 8.48 0l60.77 60.8a6 6 0 0 1 0 8.47l-60.77 60.78a6 6 0 0 1-8.5 0l-60.77-60.78a6 6 0 0 1 0-8.48z" stroke="#3a414a" stroke-width="3" fill="#fff"/><path d="M1969.88 198.43H1867.1" stroke="#3a414a" stroke-width="3" stroke-linejoin="round" fill="none"/><path d="M1971.38 198.4l.05 1.5h-1.6v-2.95h1.64z" stroke="#3a414a" stroke-width=".05" fill="#3a414a"/><path d="M1852.62 198.43l13-7.5v15z" stroke="#3a414a" stroke-width="3" fill="#3a414a"/><path d="M2217.13-83.54l24.12 4.9 21.5 5.3 18.7 5.43 15.9 5.35 11.92 4.55 6.48 2.78 6.1 2.92 5.78 3.07 5.47 3.2 5.22 3.37 5 3.5 4.76 3.7 4.6 3.84 4.4 4.03 4.28 4.25 4.12 4.46 4 4.7 3.9 4.98 3.77 5.28 3.68 5.62 3.58 6 3.5 6.46 3.4 6.95 3.28 7.54 3.2 8.22 3.06 9.03 2.94 9.98 2.78 11.15 2.58 12.58 2.32 14.4 2 16.72 1.5 19.9.85 24.56-.25 32.45-2.72 53.05-8.6 122.87-2.93-.2 8.6-122.85 2.7-52.96.26-32.32-.84-24.44-1.5-19.78-1.98-16.6-2.3-14.25-2.56-12.46-2.74-11.05-2.9-9.87-3.04-8.9-3.15-8.12-3.24-7.43-3.33-6.84-3.43-6.35-3.5-5.9-3.62-5.52-3.7-5.18-3.82-4.87-3.92-4.6-4.05-4.38-4.18-4.15-4.33-3.95-4.5-3.77-4.66-3.6-4.9-3.44-5.1-3.3-5.37-3.16-5.68-3-6-2.88-6.36-2.72-11.82-4.52-15.77-5.32-18.57-5.4-21.4-5.28-24-4.85-25.1-4v-3zm-187.24-3.27l-18.12 2.45-19.72 3.52-18.04 4-16.48 4.4-15.03 4.68-13.73 4.92-12.56 5.1-11.5 5.26-10.57 5.37-9.72 5.46-8.96 5.55-8.28 5.62-7.68 5.68-7.12 5.75-6.62 5.83-6.16 5.9-5.75 5.97-5.36 6.07-5 6.17-4.7 6.28-4.36 6.4-4.07 6.57-3.8 6.73-3.53 6.92-3.27 7.12-3.02 7.36-2.74 7.63-2.5 7.93-2.22 8.27-1.94 8.64-1.64 9.07-1.32 9.56-.96 10.1-.5 9.26-2.94-.16.5-9.3.97-10.24 1.35-9.68 1.66-9.2 1.98-8.75 2.25-8.4 2.53-8.04 2.8-7.74 3.06-7.48 3.32-7.23 3.6-7.02 3.85-6.83 4.14-6.67 4.44-6.52 4.75-6.38 5.1-6.27 5.43-6.15 5.84-6.07 6.25-5.98 6.7-5.9 7.23-5.83 7.77-5.76 8.4-5.67 9.06-5.6 9.84-5.53 10.68-5.42 11.62-5.3 12.68-5.16 13.85-4.97 15.15-4.72 16.6-4.42 18.16-4.02 19.84-3.55 18.57-2.5z" stroke="#3a414a" stroke-width=".05" fill="#3a414a"/><path d="M1782.9 128.68l-.1 1.63-.3-.06-1.17-.1-1.17.1-.3.07.08-1.78z" fill="#3a414a"/><path stroke="#3a414a" stroke-width=".05" fill="#3a414a"/><path d="M2410.23 365.13l-7.82 12.8-7.17-13.17z" fill="#3a414a"/><path d="M2412.82 363.72l-10.5 17.16-9.6-17.66zm-10.34 11.26l5.16-8.44-9.9-.25z" stroke="#3a414a" stroke-width=".05" fill="#3a414a"/><use xlink:href="#x" transform="matrix(1,0,0,1,2029.8856231939171,-103.00347874764009) translate(0 14.222222222222223)"/><use xlink:href="#y" transform="matrix(1,0,0,1,2029.8856231939171,-103.00347874764009) translate(47.35802469135803 14.222222222222223)"/><use xlink:href="#A" transform="matrix(1,0,0,1,2029.8856231939171,-103.00347874764009) translate(117.18518518518519 14.222222222222223)"/><path d="M2838.33 1067c22.1 0 40 17.9 40 40 0 22.08-17.9 40-40 40h-176c-22.1 0-40-17.92-40-40 0-22.1 17.9-40 40-40z" stroke="#3a414a" stroke-width="3" fill="#fff"/><use xlink:href="#B" transform="matrix(1,0,0,1,2635.1333333333723,1070.9904379689833) translate(13.016666666666666 41.05)"/><use xlink:href="#C" transform="matrix(1,0,0,1,2635.1333333333723,1070.9904379689833) translate(85.16666666666667 41.05)"/><path d="M2751.8 1048h-2.94v-68h2.95zm0-89.33h-2.94v-38.12h2.95z" stroke="#3a414a" stroke-width=".05" fill="#3a414a"/><path d="M2749.16 918.95l1.17.1 1.18-.1.3-.07v1.7h-2.94v-1.7z" fill="#3a414a"/><path stroke="#3a414a" stroke-width=".05" fill="#3a414a"/><path d="M2750.33 1062.5l-7.5-13h15z" fill="#3a414a"/><path d="M2750.33 1065.44l-10.05-17.4h20.1zm-4.94-14.47l4.93 8.57 4.95-8.57z" stroke="#3a414a" stroke-width=".05" fill="#3a414a"/><use xlink:href="#x" transform="matrix(1,0,0,1,2636.086419939132,958.6666666666666) translate(0 14.222222222222223)"/><use xlink:href="#D" transform="matrix(1,0,0,1,2636.086419939132,958.6666666666666) translate(47.35802469135803 14.222222222222223)"/><use xlink:href="#E" transform="matrix(1,0,0,1,2636.086419939132,958.6666666666666) translate(106.46913580246915 14.222222222222223)"/><use xlink:href="#F" transform="matrix(1,0,0,1,2636.086419939132,958.6666666666666) translate(132.0987654320988 14.222222222222223)"/><use xlink:href="#G" transform="matrix(1,0,0,1,2636.086419939132,958.6666666666666) translate(158.66666666666669 14.222222222222223)"/><path d="M2746.1 1261.74a6 6 0 0 1 8.48 0l60.77 60.78a6 6 0 0 1 0 8.5l-60.77 60.76a6 6 0 0 1-8.5 0l-60.77-60.77a6 6 0 0 1 0-8.48z" stroke="#3a414a" stroke-width="3" fill="#fff"/><path d="M2750.33 1150v91" stroke="#3a414a" stroke-width="3" stroke-linejoin="round" fill="none"/><path d="M2751.8 1150.03h-2.94v-1.54h2.95z" stroke="#3a414a" stroke-width=".05" fill="#3a414a"/><path d="M2750.33 1255.48l-7.5-13h15z" stroke="#3a414a" stroke-width="3" fill="#3a414a"/><path d="M3223.67 1286.76c22.1 0 40 17.9 40 40s-17.9 40-40 40h-176c-22.1 0-40-17.9-40-40s17.9-40 40-40z" stroke="#3a414a" stroke-width="3" fill="#fff"/><use xlink:href="#H" transform="matrix(1,0,0,1,3020.466666666667,1290.762286976756) translate(25.29444444444445 41.05)"/><use xlink:href="#I" transform="matrix(1,0,0,1,3020.466666666667,1290.762286976756) translate(122 41.05)"/><path d="M2838.33 1506.53c22.1 0 40 17.9 40 40s-17.9 40-40 40h-176c-22.1 0-40-17.9-40-40s17.9-40 40-40z" stroke="#3a414a" stroke-width="3" fill="#fff"/><use xlink:href="#J" transform="matrix(1,0,0,1,2635.1333333333337,1510.5341359845288) translate(27.569444444444457 41.05)"/><use xlink:href="#I" transform="matrix(1,0,0,1,2635.1333333333337,1510.5341359845288) translate(119.725 41.05)"/><path d="M2751.8 1487.54h-2.94v-26.83h2.95zm0-48.17h-2.94v-42.82h2.95z" stroke="#3a414a" stroke-width=".05" fill="#3a414a"/><path d="M2749.16 1394.95l1.17.1 1.18-.1.3-.07v1.7h-2.94v-1.7z" fill="#3a414a"/><path stroke="#3a414a" stroke-width=".05" fill="#3a414a"/><path d="M2750.33 1502.03l-7.5-13h15z" fill="#3a414a"/><path d="M2750.33 1504.98l-10.05-17.4h20.1zm-4.94-14.46l4.93 8.56 4.95-8.56z" stroke="#3a414a" stroke-width=".05" fill="#3a414a"/><use xlink:href="#x" transform="matrix(1,0,0,1,2696.0617283950623,1439.373626497841) translate(0 14.222222222222223)"/><use xlink:href="#K" transform="matrix(1,0,0,1,2696.0617283950623,1439.373626497841) translate(47.35802469135803 14.222222222222223)"/><path d="M2856.7 1328.24h-36.58v-2.95h36.57zm131.98 0h-20.58v-2.95h20.58z" stroke="#3a414a" stroke-width=".05" fill="#3a414a"/><path d="M2820.16 1328.24h-1.7l.06-.3.1-1.18-.1-1.17-.07-.3h1.7z" fill="#3a414a"/><path stroke="#3a414a" stroke-width=".05" fill="#3a414a"/><path d="M3003.17 1326.76l-13 7.5v-15z" fill="#3a414a"/><path d="M3006.12 1326.76l-17.42 10.06v-20.1zm-14.47 4.95l8.57-4.94-8.57-4.94z" stroke="#3a414a" stroke-width=".05" fill="#3a414a"/><use xlink:href="#x" transform="matrix(1,0,0,1,2856.6884918705014,1316.0956204935167) translate(0 14.222222222222223)"/><use xlink:href="#L" transform="matrix(1,0,0,1,2856.6884918705014,1316.0956204935167) translate(47.35802469135803 14.222222222222223)"/><path d="M2501.73 1240.37l7.47 8.65 7.47 7.96 7.48 7.33 7.5 6.77 7.55 6.25 7.6 5.76 7.66 5.33 7.75 4.93 7.86 4.53 7.97 4.17 8.1 3.82 8.3 3.48 8.48 3.15 8.7 2.83 8.97 2.5 9.25 2.18 9.6 1.83 9.95 1.48 10.38 1.1 10.87.67 9.96.2-.07 2.96-10-.2-11-.7-10.5-1.1-10.1-1.48-9.7-1.86-9.36-2.2-9.08-2.53-8.82-2.86-8.6-3.2-8.4-3.53-8.22-3.87-8.08-4.23-7.96-4.6-7.85-4.97-7.76-5.4-7.7-5.84-7.64-6.32-7.6-6.84-7.57-7.42-7.56-8.05-7.54-8.75-6.7-8.45h3.76zm-97.73-329l1.48 35.47 2.83 33.77 4 31.6 4.92 29.2 5.67 26.7 6.2 24.3 6.66 22 6.94 19.96 7.14 18.07 7.28 16.37 7.37 14.85 7.4 13.5 7.46 12.3 2 3h-3.55l-.93-1.4-7.5-12.42-7.5-13.6-7.42-14.98-7.33-16.48-7.2-18.18-6.97-20.07-6.68-22.15-6.26-24.4-5.68-26.84-4.95-29.3-4-31.72-2.84-33.9-1.48-35.58v-.67l2.94-.03z" stroke="#3a414a" stroke-width=".05" fill="#3a414a"/><path d="M2682.22 1325.3l-.08.3-.1 1.16.1 1.18.08.3-1.74-.04.06-2.94z" fill="#3a414a"/><path stroke="#3a414a" stroke-width=".05" fill="#3a414a"/><path d="M2410 909.17l-15 .16 7.36-13.07z" fill="#3a414a"/><path d="M2412.57 910.62l-20.1.2 9.86-17.5zm-15.03-2.8l9.9-.1-5.05-8.5z" stroke="#3a414a" stroke-width=".05" fill="#3a414a"/><use xlink:href="#x" transform="matrix(1,0,0,1,2383.2112046901893,1212.4627343135983) translate(0 14.222222222222223)"/><use xlink:href="#M" transform="matrix(1,0,0,1,2383.2112046901893,1212.4627343135983) translate(47.35802469135803 14.222222222222223)"/><use xlink:href="#N" transform="matrix(1,0,0,1,2383.2112046901893,1212.4627343135983) translate(116.3456790123457 14.222222222222223)"/><use xlink:href="#O" transform="matrix(1,0,0,1,2383.2112046901893,1212.4627343135983) translate(150.9135802469136 14.222222222222223)"/><path d="M2533.4 637.24l-61.25 1.3-.06-2.95 61.3-1.3zm353.6-24.52l34.24 2.15 33.95 3.57 34.93 5.17 37.07 7.1 5.02 1.12-.65 2.88-4.97-1.12-36.97-7.06-34.8-5.15-33.84-3.56-34.1-2.13-36.2-.75-41.94.9-93.14 7.84v-2.96l93-7.82 42.07-.9z" stroke="#3a414a" stroke-width=".05" fill="#3a414a"/><path d="M2472.2 638.54l-1.75.04.07-.3.1-1.18-.1-1.18-.07-.3 1.68-.03z" fill="#3a414a"/><path stroke="#3a414a" stroke-width=".05" fill="#3a414a"/><path d="M3046.03 636.44l-14.32 4.46 3.3-14.63z" fill="#3a414a"/><path d="M3048.9 637.1l-19.2 5.97 4.43-19.62zm-15.2 1.63l9.46-2.94-7.28-6.7z" stroke="#3a414a" stroke-width=".05" fill="#3a414a"/><use xlink:href="#x" transform="matrix(1,0,0,1,2533.40041399064,619.1740516010981) translate(0 14.222222222222223)"/><use xlink:href="#y" transform="matrix(1,0,0,1,2533.40041399064,619.1740516010981) translate(47.35802469135803 14.222222222222223)"/><use xlink:href="#P" transform="matrix(1,0,0,1,2533.40041399064,619.1740516010981) translate(117.18518518518519 14.222222222222223)"/><path d="M1818 843.76c0 26.5-21.8 48-48.67 48-26.88 0-48.66-21.5-48.66-48s21.78-48 48.66-48c26.88 0 48.67 21.5 48.67 48z" stroke="#000" stroke-width="3" fill-opacity="0"/><use xlink:href="#Q" transform="matrix(1,0,0,1,1725.5333333332946,800.5622869767947) translate(23.501744791666667 63.62500000000001)"/><path d="M1541.47 198.43c0 26.5-21.8 48-48.67 48s-48.66-21.5-48.66-48 21.8-48 48.66-48c26.88 0 48.67 21.5 48.67 48z" stroke="#000" stroke-width="3" fill-opacity="0"/><use xlink:href="#Q" transform="matrix(1,0,0,1,1449.0042633609537,155.228953643539) translate(23.501744791666667 63.62500000000001)"/><path d="M1580.02 199.9h-19.56v-2.95h19.56zm131.53 0h-13.7v-2.95h13.7z" stroke="#3a414a" stroke-width=".05" fill="#3a414a"/><path d="M1713.14 197.25l-.1 1.18.1 1.17.07.3h-1.7v-2.95h1.7z" fill="#3a414a"/><path stroke="#3a414a" stroke-width=".05" fill="#3a414a"/><path d="M1558.96 205.93l-13-7.5 13-7.5z" fill="#3a414a"/><path d="M1560.44 208.48l-17.42-10.05 17.42-10.06zm-11.52-10.05l8.57 4.94v-9.9z" stroke="#3a414a" stroke-width=".05" fill="#3a414a"/><use xlink:href="#R" transform="matrix(1,0,0,1,1580.0153187272417,187.76228716031906) translate(0 14.222222222222223)"/><use xlink:href="#S" transform="matrix(1,0,0,1,1580.0153187272417,187.76228716031906) translate(52.83950617283951 14.222222222222223)"/><path d="M3112.76 573.87a6 6 0 0 1 8.48 0l60.78 60.78a6 6 0 0 1 0 8.5l-60.78 60.76a6 6 0 0 1-8.48 0l-60.78-60.76a6 6 0 0 1 0-8.5z" stroke="#3a414a" stroke-width="3" fill="#fff"/><path d="M3165.67 861.56c0 26.5-21.8 48-48.67 48-26.88 0-48.67-21.5-48.67-48s21.8-48 48.67-48c26.88 0 48.67 21.5 48.67 48z" stroke="#000" stroke-width="3" fill-opacity="0"/><use xlink:href="#Q" transform="matrix(1,0,0,1,3073.1999999999225,818.3613307736928) translate(23.501744791666667 63.62500000000001)"/><path d="M3118.47 794.57h-2.94V770.3h2.94zm0-45.62h-2.94v-40.27h2.94z" stroke="#3a414a" stroke-width=".05" fill="#3a414a"/><path d="M3115.83 707.1l1.17.08 1.17-.1.3-.07v1.72h-2.94v-1.7z" fill="#3a414a"/><path stroke="#3a414a" stroke-width=".05" fill="#3a414a"/><path d="M3117 809.06l-7.5-13h15z" fill="#3a414a"/><path d="M3117 812l-10.05-17.4h20.1zm-4.95-14.45l4.95 8.56 4.95-8.55z" stroke="#3a414a" stroke-width=".05" fill="#3a414a"/><use xlink:href="#T" transform="matrix(1,0,0,1,3084.5061730255134,748.9532917397659) translate(0 14.222222222222223)"/><path d="M3205 231.57c22.1 0 40 17.9 40 40s-17.9 40-40 40h-176c-22.1 0-40-17.9-40-40s17.9-40 40-40z" stroke="#3a414a" stroke-width="3" fill="#fff"/><use xlink:href="#U" transform="matrix(1,0,0,1,3001.8,235.57096958060038) translate(19.55277777777779 41.05)"/><use xlink:href="#I" transform="matrix(1,0,0,1,3001.8,235.57096958060038) translate(127.74166666666666 41.05)"/><path d="M2838.33 231.57c22.1 0 40 17.9 40 40s-17.9 40-40 40h-176c-22.1 0-40-17.9-40-40s17.9-40 40-40z" stroke="#3a414a" stroke-width="3" fill="#fff"/><use xlink:href="#V" transform="matrix(1,0,0,1,2635.1333333333337,235.57096958060038) translate(21.611111111111114 41.05)"/><use xlink:href="#W" transform="matrix(1,0,0,1,2635.1333333333337,235.57096958060038) translate(103.94444444444443 41.05)"/><path d="M2986 271.57h-88.68" stroke="#3a414a" stroke-width="3" fill="none"/><path d="M2987.5 271.55l.05 1.5h-1.6v-2.95h1.64z" stroke="#3a414a" stroke-width=".05" fill="#3a414a"/><path d="M2882.83 271.57l13-7.5v15z" stroke="#3a414a" stroke-width="3" fill="#3a414a"/><path d="M3202.33 401c22.1 0 40 17.9 40 40s-17.9 40-40 40h-176c-22.1 0-40-17.9-40-40s17.9-40 40-40z" stroke="#3a414a" stroke-width="3" fill="#fff"/><use xlink:href="#X" transform="matrix(1,0,0,1,2999.133333333256,405.0002297409226) translate(8.177777777777777 41.05)"/><use xlink:href="#Y" transform="matrix(1,0,0,1,2999.133333333256,405.0002297409226) translate(72.88888888888889 41.05)"/><use xlink:href="#Z" transform="matrix(1,0,0,1,2999.133333333256,405.0002297409226) translate(163.81666666666666 41.05)"/><path d="M3118.47 569.1h-2.94v-15.77h2.94zm0-37.1h-2.94v-32h2.94z" stroke="#3a414a" stroke-width=".05" fill="#3a414a"/><path d="M3118.47 570.78l-.3-.07-1.17-.1-1.17.1-.3.08v-1.7h2.94z" fill="#3a414a"/><path stroke="#3a414a" stroke-width=".05" fill="#3a414a"/><path d="M3124.5 498.5h-15l7.5-13z" fill="#3a414a"/><path d="M3127.05 499.97h-20.1l10.05-17.42zm-15-2.95h9.9l-4.95-8.57z" stroke="#3a414a" stroke-width=".05" fill="#3a414a"/><g><use xlink:href="#aa" transform="matrix(1,0,0,1,3060.7777779637845,531.9999999999999) translate(0 14.222222222222223)"/><use xlink:href="#ab" transform="matrix(1,0,0,1,3060.7777779637845,531.9999999999999) translate(86.81481481481481 14.222222222222223)"/></g><path d="M3114.33 398v-67.44" stroke="#3a414a" stroke-width="3" fill="none"/><path d="M3115.8 399.5h-2.94v-1.54h2.95z" stroke="#3a414a" stroke-width=".05" fill="#3a414a"/><path d="M3114.33 316.07l7.5 13h-15z" stroke="#3a414a" stroke-width="3" fill="#3a414a"/><path d="M1769.36 792.76l.05-2 .2-3.16.3-2.9.4-2.65.47-2.46.54-2.3.6-2.15.66-2 .7-1.9.76-1.82.82-1.73.86-1.65.9-1.58 1-1.53 1.02-1.48 1.1-1.45 1.15-1.4 1.24-1.36 1.33-1.35 1.42-1.34 1.52-1.32 1.64-1.3 1.8-1.3 1.94-1.3 2.13-1.28 2.37-1.3 2.63-1.3 2.96-1.32 3.38-1.33 3.93-1.36 4.63-1.4 5.63-1.43 7.16-1.5 9.94-1.68 17.94-2.2 53.33-5.75 12.1-2.03 9.16-1.94 7.5-1.9 6.34-1.93 5.52-1.92 4.88-1.93 4.4-1.95 3.96-1.98 3.64-2 3.35-2.03 3.1-2.07 2.9-2.1 2.72-2.15 2.55-2.2 2.4-2.26 2.03-2.08" stroke="#3a414a" stroke-width="3" stroke-linejoin="round" fill="none"/><path d="M1770.84 792.75l-.03 1.6-1.44-.1-1.5.03.03-1.6z" stroke="#3a414a" stroke-width=".05" fill="#3a414a"/><path d="M1993.04 683.48l-1.84 14.9-11.97-9.05z" stroke="#3a414a" stroke-width="3" fill="#3a414a"/><path d="M2188.88 810.76c22.1 0 40 17.9 40 40s-17.9 40-40 40h-176c-22.1 0-40-17.9-40-40s17.9-40 40-40z" stroke="#3a414a" stroke-width="3" fill="#fff"/><g><use xlink:href="#ac" transform="matrix(1,0,0,1,1985.6810667125508,814.7622869767947) translate(37.077222222222225 25.3)"/><use xlink:href="#ad" transform="matrix(1,0,0,1,1985.6810667125508,814.7622869767947) translate(100.48833333333333 25.3)"/><use xlink:href="#ae" transform="matrix(1,0,0,1,1985.6810667125508,814.7622869767947) translate(79.61611111111112 56.5)"/></g><path d="M2235.56 757.82l-4.1 3.6-3.7 3.57-3.42 3.54-3.16 3.58-2.95 3.65-2.78 3.75-2.64 3.88-2.5 4.05-2.4 4.26-2.3 4.5-.37.82-2.68-1.23.4-.87 2.35-4.62 2.46-4.35 2.57-4.16 2.7-4 2.87-3.84 3.03-3.75 3.24-3.66 3.5-3.64 3.8-3.64 4.2-3.7 1.64-1.34h4.7zm129.97-83.98l-4.95 4.75-6.43 5.66-6.94 5.62-7.66 5.7-8.78 5.95-10.75 6.65-16.18 9.08-29.16 15.63h-6.24l34-18.23 16.1-9.03 10.63-6.6 8.68-5.88 7.57-5.6 6.85-5.56 6.34-5.6 4.9-4.68z" stroke="#3a414a" stroke-width=".05" fill="#3a414a"/><path d="M2366.64 672.78l-1.14 1.1-2.04-2.14 1.1-1.04z" fill="#3a414a"/><path stroke="#3a414a" stroke-width=".05" fill="#3a414a"/><path d="M2210.3 800.55l-11.75 9.3-2.18-14.83z" fill="#3a414a"/><path d="M2213.23 800.13l-15.77 12.47-2.92-19.9zm-13.6 7l7.76-6.15-9.2-3.65z" stroke="#3a414a" stroke-width=".05" fill="#3a414a"/><g><use xlink:href="#x" transform="matrix(1,0,0,1,2157.1936028566215,732.8865136543543) translate(0 14.222222222222223)"/><use xlink:href="#y" transform="matrix(1,0,0,1,2157.1936028566215,732.8865136543543) translate(47.35802469135803 14.222222222222223)"/><use xlink:href="#af" transform="matrix(1,0,0,1,2157.1936028566215,732.8865136543543) translate(117.18518518518519 14.222222222222223)"/></g><path d="M2149.55 18.73c0 26.5-21.8 48-48.67 48-26.88 0-48.67-21.5-48.67-48s21.8-48 48.68-48 48.67 21.5 48.67 48z" stroke="#000" stroke-width="3" fill-opacity="0"/><g><use xlink:href="#ag" transform="matrix(1,0,0,1,2057.0810667124733,-24.467555920155018) translate(23.501744791666667 63.62500000000001)"/></g><path d="M2149.55 1019c0 26.5-21.8 48-48.67 48-26.88 0-48.67-21.5-48.67-48 0-26.52 21.8-48 48.68-48s48.67 21.48 48.67 48z" stroke="#000" stroke-width="3" fill-opacity="0"/><g><use xlink:href="#ag" transform="matrix(1,0,0,1,2057.0810667124733,975.7904379689833) translate(23.501744791666667 63.62500000000001)"/></g><path d="M2100.88 69.73v69.7" stroke="#3a414a" stroke-width="3" stroke-linejoin="round" fill="none"/><path d="M2100.85 68.23l1.5-.02v1.57h-2.94v-1.6z" stroke="#3a414a" stroke-width=".05" fill="#3a414a"/><path d="M2100.88 153.93l-7.5-13h15z" stroke="#3a414a" stroke-width="3" fill="#3a414a"/><path d="M2100.88 893.76V952" stroke="#3a414a" stroke-width="3" stroke-linejoin="round" fill="none"/><path d="M2102.36 893.8h-2.95v-1.54h2.96z" stroke="#3a414a" stroke-width=".05" fill="#3a414a"/><path d="M2100.88 966.5l-7.5-13h15z" stroke="#3a414a" stroke-width="3" fill="#3a414a"/><path d="M2799 81.17c0 26.5-21.8 48-48.67 48-26.88 0-48.66-21.5-48.66-48s21.78-48 48.66-48c26.88 0 48.67 21.5 48.67 48z" stroke="#000" stroke-width="3" fill-opacity="0"/><g><use xlink:href="#Q" transform="matrix(1,0,0,1,2706.5333333332946,37.96576746292412) translate(23.501744791666667 63.62500000000001)"/></g><path d="M2750.33 228.57v-80.4" stroke="#3a414a" stroke-width="3" stroke-linejoin="round" fill="none"/><path d="M2751.8 230.07h-2.94v-1.54h2.95z" stroke="#3a414a" stroke-width=".05" fill="#3a414a"/><path d="M2750.33 133.67l7.5 13h-15z" stroke="#3a414a" stroke-width="3" fill="#3a414a"/><defs><path d="M212-179c-10-28-35-45-73-45-59 0-87 40-87 99 0 60 29 101 89 101 43 0 62-24 78-52l27 14C228-24 195 4 139 4 59 4 22-46 18-125c-6-104 99-153 187-111 19 9 31 26 39 46" id="ah"/><path d="M141-36C126-15 110 5 73 4 37 3 15-17 15-53c-1-64 63-63 125-63 3-35-9-54-41-54-24 1-41 7-42 31l-33-3c5-37 33-52 76-52 45 0 72 20 72 64v82c-1 20 7 32 28 27v20c-31 9-61-2-59-35zM48-53c0 20 12 33 32 33 41-3 63-29 60-74-43 2-92-5-92 41" id="ai"/><path d="M114-163C36-179 61-72 57 0H25l-1-190h30c1 12-1 29 2 39 6-27 23-49 58-41v29" id="aj"/><path d="M24-231v-30h32v30H24zM24 0v-190h32V0H24" id="ak"/><path d="M96-169c-40 0-48 33-48 73s9 75 48 75c24 0 41-14 43-38l32 2c-6 37-31 61-74 61-59 0-76-41-82-99-10-93 101-131 147-64 4 7 5 14 7 22l-32 3c-4-21-16-35-41-35" id="al"/><g id="a"><use transform="matrix(0.07222222222222222,0,0,0.07222222222222222,0,0)" xlink:href="#ah"/><use transform="matrix(0.07222222222222222,0,0,0.07222222222222222,18.705555555555552,0)" xlink:href="#ai"/><use transform="matrix(0.07222222222222222,0,0,0.07222222222222222,33.14999999999999,0)" xlink:href="#aj"/><use transform="matrix(0.07222222222222222,0,0,0.07222222222222222,41.74444444444443,0)" xlink:href="#ak"/><use transform="matrix(0.07222222222222222,0,0,0.07222222222222222,47.44999999999999,0)" xlink:href="#al"/><use transform="matrix(0.07222222222222222,0,0,0.07222222222222222,60.44999999999999,0)" xlink:href="#ai"/></g><path d="M84 4C-5 8 30-112 23-190h32v120c0 31 7 50 39 49 72-2 45-101 50-169h31l1 190h-30c-1-10 1-25-2-33-11 22-28 36-60 37" id="am"/><path d="M115-194c53 0 69 39 70 98 0 66-23 100-70 100C84 3 66-7 56-30L54 0H23l1-261h32v101c10-23 28-34 59-34zm-8 174c40 0 45-34 45-75 0-40-5-75-45-74-42 0-51 32-51 76 0 43 10 73 51 73" id="an"/><g id="b"><use transform="matrix(0.07222222222222222,0,0,0.07222222222222222,0,0)" xlink:href="#aj"/><use transform="matrix(0.07222222222222222,0,0,0.07222222222222222,8.594444444444443,0)" xlink:href="#am"/><use transform="matrix(0.07222222222222222,0,0,0.07222222222222222,23.038888888888884,0)" xlink:href="#an"/><use transform="matrix(0.07222222222222222,0,0,0.07222222222222222,37.48333333333333,0)" xlink:href="#aj"/><use transform="matrix(0.07222222222222222,0,0,0.07222222222222222,46.07777777777777,0)" xlink:href="#ak"/><use transform="matrix(0.07222222222222222,0,0,0.07222222222222222,51.78333333333332,0)" xlink:href="#al"/><use transform="matrix(0.07222222222222222,0,0,0.07222222222222222,64.78333333333332,0)" xlink:href="#ai"/></g><path d="M33 0v-248h34V0H33" id="ao"/><path d="M117-194c89-4 53 116 60 194h-32v-121c0-31-8-49-39-48C34-167 62-67 57 0H25l-1-190h30c1 10-1 24 2 32 11-22 29-35 61-36" id="ap"/><path d="M9 0v-24l116-142H16v-24h144v24L44-24h123V0H9" id="aq"/><path d="M24 0v-261h32V0H24" id="ar"/><g id="c"><use transform="matrix(0.07222222222222222,0,0,0.07222222222222222,0,0)" xlink:href="#ao"/><use transform="matrix(0.07222222222222222,0,0,0.07222222222222222,7.222222222222221,0)" xlink:href="#ap"/><use transform="matrix(0.07222222222222222,0,0,0.07222222222222222,21.666666666666664,0)" xlink:href="#ak"/><use transform="matrix(0.07222222222222222,0,0,0.07222222222222222,27.37222222222222,0)" xlink:href="#aq"/><use transform="matrix(0.07222222222222222,0,0,0.07222222222222222,40.37222222222222,0)" xlink:href="#ak"/><use transform="matrix(0.07222222222222222,0,0,0.07222222222222222,46.077777777777776,0)" xlink:href="#ai"/><use transform="matrix(0.07222222222222222,0,0,0.07222222222222222,60.52222222222222,0)" xlink:href="#ar"/><use transform="matrix(0.07222222222222222,0,0,0.07222222222222222,66.22777777777777,0)" xlink:href="#ak"/><use transform="matrix(0.07222222222222222,0,0,0.07222222222222222,71.93333333333332,0)" xlink:href="#aq"/><use transform="matrix(0.07222222222222222,0,0,0.07222222222222222,84.93333333333332,0)" xlink:href="#aq"/><use transform="matrix(0.07222222222222222,0,0,0.07222222222222222,97.93333333333332,0)" xlink:href="#ai"/></g><path d="M115-194c55 1 70 41 70 98S169 2 115 4C84 4 66-9 55-30l1 105H24l-1-265h31l2 30c10-21 28-34 59-34zm-8 174c40 0 45-34 45-75s-6-73-45-74c-42 0-51 32-51 76 0 43 10 73 51 73" id="as"/><g id="d"><use transform="matrix(0.07222222222222222,0,0,0.07222222222222222,0,0)" xlink:href="#ai"/><use transform="matrix(0.07222222222222222,0,0,0.07222222222222222,14.444444444444443,0)" xlink:href="#as"/><use transform="matrix(0.07222222222222222,0,0,0.07222222222222222,28.888888888888886,0)" xlink:href="#as"/></g><path d="M240 0l2-218c-23 76-54 145-80 218h-23L58-218 59 0H30v-248h44l77 211c21-75 51-140 76-211h43V0h-30" id="at"/><path d="M100-194c62-1 85 37 85 99 1 63-27 99-86 99S16-35 15-95c0-66 28-99 85-99zM99-20c44 1 53-31 53-75 0-43-8-75-51-75s-53 32-53 75 10 74 51 75" id="au"/><path d="M135-143c-3-34-86-38-87 0 15 53 115 12 119 90S17 21 10-45l28-5c4 36 97 45 98 0-10-56-113-15-118-90-4-57 82-63 122-42 12 7 21 19 24 35" id="av"/><path d="M59-47c-2 24 18 29 38 22v24C64 9 27 4 27-40v-127H5v-23h24l9-43h21v43h35v23H59v120" id="aw"/><g id="e"><use transform="matrix(0.07222222222222222,0,0,0.07222222222222222,0,0)" xlink:href="#at"/><use transform="matrix(0.07222222222222222,0,0,0.07222222222222222,21.59444444444444,0)" xlink:href="#au"/><use transform="matrix(0.07222222222222222,0,0,0.07222222222222222,36.038888888888884,0)" xlink:href="#av"/><use transform="matrix(0.07222222222222222,0,0,0.07222222222222222,49.038888888888884,0)" xlink:href="#aw"/><use transform="matrix(0.07222222222222222,0,0,0.07222222222222222,56.261111111111106,0)" xlink:href="#aj"/><use transform="matrix(0.07222222222222222,0,0,0.07222222222222222,64.85555555555555,0)" xlink:href="#ai"/></g><path d="M210-169c-67 3-38 105-44 169h-31v-121c0-29-5-50-35-48C34-165 62-65 56 0H25l-1-190h30c1 10-1 24 2 32 10-44 99-50 107 0 11-21 27-35 58-36 85-2 47 119 55 194h-31v-121c0-29-5-49-35-48" id="ax"/><path d="M100-194c63 0 86 42 84 106H49c0 40 14 67 53 68 26 1 43-12 49-29l28 8c-11 28-37 45-77 45C44 4 14-33 15-96c1-61 26-98 85-98zm52 81c6-60-76-77-97-28-3 7-6 17-6 28h103" id="ay"/><g id="f"><use transform="matrix(0.07222222222222222,0,0,0.07222222222222222,0,0)" xlink:href="#ax"/><use transform="matrix(0.07222222222222222,0,0,0.07222222222222222,21.59444444444444,0)" xlink:href="#ay"/><use transform="matrix(0.07222222222222222,0,0,0.07222222222222222,36.038888888888884,0)" xlink:href="#ap"/><use transform="matrix(0.07222222222222222,0,0,0.07222222222222222,50.48333333333333,0)" xlink:href="#am"/></g><g id="g"><use transform="matrix(0.07222222222222222,0,0,0.07222222222222222,0,0)" xlink:href="#as"/><use transform="matrix(0.07222222222222222,0,0,0.07222222222222222,14.444444444444443,0)" xlink:href="#aj"/><use transform="matrix(0.07222222222222222,0,0,0.07222222222222222,23.038888888888884,0)" xlink:href="#ak"/><use transform="matrix(0.07222222222222222,0,0,0.07222222222222222,28.74444444444444,0)" xlink:href="#al"/><use transform="matrix(0.07222222222222222,0,0,0.07222222222222222,41.74444444444444,0)" xlink:href="#ak"/><use transform="matrix(0.07222222222222222,0,0,0.07222222222222222,47.449999999999996,0)" xlink:href="#as"/><use transform="matrix(0.07222222222222222,0,0,0.07222222222222222,61.89444444444444,0)" xlink:href="#ai"/><use transform="matrix(0.07222222222222222,0,0,0.07222222222222222,76.33888888888889,0)" xlink:href="#ar"/><use transform="matrix(0.07222222222222222,0,0,0.07222222222222222,82.04444444444442,0)" xlink:href="#ay"/></g><g id="h"><use transform="matrix(0.07222222222222222,0,0,0.07222222222222222,0,0)" xlink:href="#al"/><use transform="matrix(0.07222222222222222,0,0,0.07222222222222222,12.999999999999998,0)" xlink:href="#au"/><use transform="matrix(0.07222222222222222,0,0,0.07222222222222222,27.444444444444443,0)" xlink:href="#ap"/><use transform="matrix(0.07222222222222222,0,0,0.07222222222222222,41.888888888888886,0)" xlink:href="#aw"/><use transform="matrix(0.07222222222222222,0,0,0.07222222222222222,49.11111111111111,0)" xlink:href="#ai"/><use transform="matrix(0.07222222222222222,0,0,0.07222222222222222,63.55555555555555,0)" xlink:href="#aw"/><use transform="matrix(0.07222222222222222,0,0,0.07222222222222222,70.77777777777777,0)" xlink:href="#aw"/><use transform="matrix(0.07222222222222222,0,0,0.07222222222222222,77.99999999999999,0)" xlink:href="#au"/></g><path fill="#333" d="M24-248c120-7 223 5 221 122C244-46 201 0 124 0H24v-248zM76-40c74 7 117-18 117-86 0-67-45-88-117-82v168" id="az"/><path fill="#333" d="M110-194c64 0 96 36 96 99 0 64-35 99-97 99-61 0-95-36-95-99 0-62 34-99 96-99zm-1 164c35 0 45-28 45-65 0-40-10-65-43-65-34 0-45 26-45 65 0 36 10 65 43 65" id="aA"/><path fill="#333" d="M135-194c53 0 70 44 70 98 0 56-19 98-73 100-31 1-45-17-59-34 3 33 2 69 2 105H25l-1-265h48c2 10 0 23 3 31 11-24 29-35 60-35zM114-30c33 0 39-31 40-66 0-38-9-64-40-64-56 0-55 130 0 130" id="aB"/><path fill="#333" d="M25-224v-37h50v37H25zM25 0v-190h50V0H25" id="aC"/><g id="i"><use transform="matrix(0.04938271604938272,0,0,0.04938271604938272,0,0)" xlink:href="#az"/><use transform="matrix(0.04938271604938272,0,0,0.04938271604938272,12.790123456790125,0)" xlink:href="#aA"/><use transform="matrix(0.04938271604938272,0,0,0.04938271604938272,23.60493827160494,0)" xlink:href="#aB"/><use transform="matrix(0.04938271604938272,0,0,0.04938271604938272,34.41975308641975,0)" xlink:href="#aB"/><use transform="matrix(0.04938271604938272,0,0,0.04938271604938272,45.23456790123457,0)" xlink:href="#aC"/><use transform="matrix(0.04938271604938272,0,0,0.04938271604938272,50.17283950617284,0)" xlink:href="#aA"/></g><path fill="#333" d="M190-63c-7 42-38 67-86 67-59 0-84-38-90-98-12-110 154-137 174-36l-49 2c-2-19-15-32-35-32-30 0-35 28-38 64-6 74 65 87 74 30" id="aD"/><path fill="#333" d="M25 0v-261h50V0H25" id="aE"/><path fill="#333" d="M147 0L96-86 75-71V0H25v-261h50v150l67-79h53l-66 74L201 0h-54" id="aF"/><g id="j"><use transform="matrix(0.04938271604938272,0,0,0.04938271604938272,0,0)" xlink:href="#aD"/><use transform="matrix(0.04938271604938272,0,0,0.04938271604938272,9.876543209876544,0)" xlink:href="#aE"/><use transform="matrix(0.04938271604938272,0,0,0.04938271604938272,14.814814814814817,0)" xlink:href="#aC"/><use transform="matrix(0.04938271604938272,0,0,0.04938271604938272,19.75308641975309,0)" xlink:href="#aD"/><use transform="matrix(0.04938271604938272,0,0,0.04938271604938272,29.629629629629633,0)" xlink:href="#aF"/></g><path d="M185-189c-5-48-123-54-124 2 14 75 158 14 163 119 3 78-121 87-175 55-17-10-28-26-33-46l33-7c5 56 141 63 141-1 0-78-155-14-162-118-5-82 145-84 179-34 5 7 8 16 11 25" id="aG"/><g id="k"><use transform="matrix(0.07222222222222222,0,0,0.07222222222222222,0,0)" xlink:href="#aG"/><use transform="matrix(0.07222222222222222,0,0,0.07222222222222222,17.333333333333332,0)" xlink:href="#ay"/><use transform="matrix(0.07222222222222222,0,0,0.07222222222222222,31.777777777777775,0)" xlink:href="#ar"/><use transform="matrix(0.07222222222222222,0,0,0.07222222222222222,37.48333333333333,0)" xlink:href="#ay"/><use transform="matrix(0.07222222222222222,0,0,0.07222222222222222,51.92777777777777,0)" xlink:href="#aq"/><use transform="matrix(0.07222222222222222,0,0,0.07222222222222222,64.92777777777776,0)" xlink:href="#ak"/><use transform="matrix(0.07222222222222222,0,0,0.07222222222222222,70.63333333333331,0)" xlink:href="#au"/><use transform="matrix(0.07222222222222222,0,0,0.07222222222222222,85.07777777777775,0)" xlink:href="#ap"/><use transform="matrix(0.07222222222222222,0,0,0.07222222222222222,99.5222222222222,0)" xlink:href="#ay"/></g><g id="l"><use transform="matrix(0.07222222222222222,0,0,0.07222222222222222,0,0)" xlink:href="#ax"/><use transform="matrix(0.07222222222222222,0,0,0.07222222222222222,21.59444444444444,0)" xlink:href="#am"/><use transform="matrix(0.07222222222222222,0,0,0.07222222222222222,36.038888888888884,0)" xlink:href="#ar"/><use transform="matrix(0.07222222222222222,0,0,0.07222222222222222,41.74444444444444,0)" xlink:href="#aw"/><use transform="matrix(0.07222222222222222,0,0,0.07222222222222222,48.96666666666666,0)" xlink:href="#ak"/><use transform="matrix(0.07222222222222222,0,0,0.07222222222222222,54.67222222222222,0)" xlink:href="#as"/><use transform="matrix(0.07222222222222222,0,0,0.07222222222222222,69.11666666666666,0)" xlink:href="#ar"/><use transform="matrix(0.07222222222222222,0,0,0.07222222222222222,74.82222222222221,0)" xlink:href="#ai"/></g><path fill="#333" d="M169-182c-1-43-94-46-97-3 18 66 151 10 154 114 3 95-165 93-204 36-6-8-10-19-12-30l50-8c3 46 112 56 116 5-17-69-150-10-154-114-4-87 153-88 188-35 5 8 8 18 10 28" id="aH"/><path fill="#333" d="M135-194c87-1 58 113 63 194h-50c-7-57 23-157-34-157-59 0-34 97-39 157H25l-1-190h47c2 12-1 28 3 38 12-26 28-41 61-42" id="aI"/><path fill="#333" d="M195-6C206 82 75 100 31 46c-4-6-6-13-8-21l49-6c3 16 16 24 34 25 40 0 42-37 40-79-11 22-30 35-61 35-53 0-70-43-70-97 0-56 18-96 73-97 30 0 46 14 59 34l2-30h47zm-90-29c32 0 41-27 41-63 0-35-9-62-40-62-32 0-39 29-40 63 0 36 9 62 39 62" id="aJ"/><g id="m"><use transform="matrix(0.04938271604938272,0,0,0.04938271604938272,0,0)" xlink:href="#aH"/><use transform="matrix(0.04938271604938272,0,0,0.04938271604938272,11.851851851851853,0)" xlink:href="#aC"/><use transform="matrix(0.04938271604938272,0,0,0.04938271604938272,16.790123456790127,0)" xlink:href="#aI"/><use transform="matrix(0.04938271604938272,0,0,0.04938271604938272,27.604938271604947,0)" xlink:href="#aJ"/><use transform="matrix(0.04938271604938272,0,0,0.04938271604938272,38.41975308641976,0)" xlink:href="#aA"/><use transform="matrix(0.04938271604938272,0,0,0.04938271604938272,49.23456790123458,0)" xlink:href="#aE"/><use transform="matrix(0.04938271604938272,0,0,0.04938271604938272,54.17283950617284,0)" xlink:href="#aA"/></g><path d="M30-248c118-7 216 8 213 122C240-48 200 0 122 0H30v-248zM63-27c89 8 146-16 146-99s-60-101-146-95v194" id="aK"/><g id="n"><use transform="matrix(0.07222222222222222,0,0,0.07222222222222222,0,0)" xlink:href="#aK"/><use transform="matrix(0.07222222222222222,0,0,0.07222222222222222,18.705555555555552,0)" xlink:href="#ay"/><use transform="matrix(0.07222222222222222,0,0,0.07222222222222222,33.14999999999999,0)" xlink:href="#av"/><use transform="matrix(0.07222222222222222,0,0,0.07222222222222222,46.149999999999984,0)" xlink:href="#ay"/><use transform="matrix(0.07222222222222222,0,0,0.07222222222222222,60.59444444444443,0)" xlink:href="#ar"/><use transform="matrix(0.07222222222222222,0,0,0.07222222222222222,66.29999999999998,0)" xlink:href="#ay"/><use transform="matrix(0.07222222222222222,0,0,0.07222222222222222,80.74444444444443,0)" xlink:href="#aq"/><use transform="matrix(0.07222222222222222,0,0,0.07222222222222222,93.74444444444443,0)" xlink:href="#ak"/><use transform="matrix(0.07222222222222222,0,0,0.07222222222222222,99.44999999999997,0)" xlink:href="#au"/><use transform="matrix(0.07222222222222222,0,0,0.07222222222222222,113.89444444444442,0)" xlink:href="#ap"/><use transform="matrix(0.07222222222222222,0,0,0.07222222222222222,128.33888888888885,0)" xlink:href="#ai"/></g><g id="o"><use transform="matrix(0.07222222222222222,0,0,0.07222222222222222,0,0)" xlink:href="#aw"/><use transform="matrix(0.07222222222222222,0,0,0.07222222222222222,7.222222222222221,0)" xlink:href="#am"/><use transform="matrix(0.07222222222222222,0,0,0.07222222222222222,21.666666666666664,0)" xlink:href="#aw"/><use transform="matrix(0.07222222222222222,0,0,0.07222222222222222,28.888888888888886,0)" xlink:href="#aw"/><use transform="matrix(0.07222222222222222,0,0,0.07222222222222222,36.11111111111111,0)" xlink:href="#au"/></g><path fill="#333" d="M136-208V0H84v-208H4v-40h212v40h-80" id="aL"/><path fill="#333" d="M135-150c-39-12-60 13-60 57V0H25l-1-190h47c2 13-1 29 3 40 6-28 27-53 61-41v41" id="aM"/><path fill="#333" d="M133-34C117-15 103 5 69 4 32 3 11-16 11-54c-1-60 55-63 116-61 1-26-3-47-28-47-18 1-26 9-28 27l-52-2c7-38 36-58 82-57s74 22 75 68l1 82c-1 14 12 18 25 15v27c-30 8-71 5-69-32zm-48 3c29 0 43-24 42-57-32 0-66-3-65 30 0 17 8 27 23 27" id="aN"/><g id="p"><use transform="matrix(0.04938271604938272,0,0,0.04938271604938272,0,0)" xlink:href="#aL"/><use transform="matrix(0.04938271604938272,0,0,0.04938271604938272,9.481481481481481,0)" xlink:href="#aA"/><use transform="matrix(0.04938271604938272,0,0,0.04938271604938272,20.296296296296298,0)" xlink:href="#aM"/><use transform="matrix(0.04938271604938272,0,0,0.04938271604938272,27.20987654320988,0)" xlink:href="#aI"/><use transform="matrix(0.04938271604938272,0,0,0.04938271604938272,38.0246913580247,0)" xlink:href="#aN"/></g><path fill="#333" d="M88-194c31-1 46 15 58 34l-1-101h50l1 261h-48c-2-10 0-23-3-31C134-8 116 4 84 4 32 4 16-41 15-95c0-56 19-97 73-99zm17 164c33 0 40-30 41-66 1-37-9-64-41-64s-38 30-39 65c0 43 13 65 39 65" id="aO"/><path fill="#333" d="M185-48c-13 30-37 53-82 52C43 2 14-33 14-96s30-98 90-98c62 0 83 45 84 108H66c0 31 8 55 39 56 18 0 30-7 34-22zm-45-69c5-46-57-63-70-21-2 6-4 13-4 21h74" id="aP"/><path fill="#333" d="M115-3C79 11 28 4 28-45v-112H4v-33h27l15-45h31v45h36v33H77v99c-1 23 16 31 38 25v30" id="aQ"/><g id="q"><use transform="matrix(0.04938271604938272,0,0,0.04938271604938272,0,0)" xlink:href="#aC"/><use transform="matrix(0.04938271604938272,0,0,0.04938271604938272,4.938271604938272,0)" xlink:href="#aI"/><use transform="matrix(0.04938271604938272,0,0,0.04938271604938272,15.753086419753087,0)" xlink:href="#aO"/><use transform="matrix(0.04938271604938272,0,0,0.04938271604938272,26.567901234567902,0)" xlink:href="#aC"/><use transform="matrix(0.04938271604938272,0,0,0.04938271604938272,31.506172839506174,0)" xlink:href="#aP"/><use transform="matrix(0.04938271604938272,0,0,0.04938271604938272,41.38271604938272,0)" xlink:href="#aQ"/><use transform="matrix(0.04938271604938272,0,0,0.04938271604938272,47.25925925925927,0)" xlink:href="#aM"/><use transform="matrix(0.04938271604938272,0,0,0.04938271604938272,54.17283950617284,0)" xlink:href="#aA"/></g><path d="M205 0l-28-72H64L36 0H1l101-248h38L239 0h-34zm-38-99l-47-123c-12 45-31 82-46 123h93" id="aR"/><g id="r"><use transform="matrix(0.07222222222222222,0,0,0.07222222222222222,0,0)" xlink:href="#aR"/><use transform="matrix(0.07222222222222222,0,0,0.07222222222222222,17.333333333333332,0)" xlink:href="#as"/><use transform="matrix(0.07222222222222222,0,0,0.07222222222222222,31.777777777777775,0)" xlink:href="#aj"/><use transform="matrix(0.07222222222222222,0,0,0.07222222222222222,40.37222222222222,0)" xlink:href="#ak"/></g><g id="s"><use transform="matrix(0.07222222222222222,0,0,0.07222222222222222,0,0)" xlink:href="#ai"/><use transform="matrix(0.07222222222222222,0,0,0.07222222222222222,14.444444444444443,0)" xlink:href="#as"/><use transform="matrix(0.07222222222222222,0,0,0.07222222222222222,28.888888888888886,0)" xlink:href="#as"/></g><g id="t"><use transform="matrix(0.07222222222222222,0,0,0.07222222222222222,0,0)" xlink:href="#as"/><use transform="matrix(0.07222222222222222,0,0,0.07222222222222222,14.444444444444443,0)" xlink:href="#au"/><use transform="matrix(0.07222222222222222,0,0,0.07222222222222222,28.888888888888886,0)" xlink:href="#av"/><use transform="matrix(0.07222222222222222,0,0,0.07222222222222222,41.888888888888886,0)" xlink:href="#aw"/><use transform="matrix(0.07222222222222222,0,0,0.07222222222222222,49.11111111111111,0)" xlink:href="#ai"/></g><path d="M143 0L79-87 56-68V0H24v-261h32v163l83-92h37l-77 82L181 0h-38" id="aS"/><g id="u"><use transform="matrix(0.04938271604938272,0,0,0.04938271604938272,0,0)" xlink:href="#ah"/><use transform="matrix(0.04938271604938272,0,0,0.04938271604938272,12.790123456790125,0)" xlink:href="#ar"/><use transform="matrix(0.04938271604938272,0,0,0.04938271604938272,16.69135802469136,0)" xlink:href="#ak"/><use transform="matrix(0.04938271604938272,0,0,0.04938271604938272,20.592592592592595,0)" xlink:href="#al"/><use transform="matrix(0.04938271604938272,0,0,0.04938271604938272,29.481481481481485,0)" xlink:href="#aS"/></g><path d="M30 0v-248h187v28H63v79h144v27H63v87h162V0H30" id="aT"/><g id="v"><use transform="matrix(0.04938271604938272,0,0,0.04938271604938272,0,0)" xlink:href="#aT"/><use transform="matrix(0.04938271604938272,0,0,0.04938271604938272,11.851851851851853,0)" xlink:href="#ax"/><use transform="matrix(0.04938271604938272,0,0,0.04938271604938272,26.617283950617285,0)" xlink:href="#ai"/><use transform="matrix(0.04938271604938272,0,0,0.04938271604938272,36.49382716049383,0)" xlink:href="#ak"/><use transform="matrix(0.04938271604938272,0,0,0.04938271604938272,40.39506172839506,0)" xlink:href="#ar"/></g><path d="M85-194c31 0 48 13 60 33l-1-100h32l1 261h-30c-2-10 0-23-3-31C134-8 116 4 85 4 32 4 16-35 15-94c0-66 23-100 70-100zm9 24c-40 0-46 34-46 75 0 40 6 74 45 74 42 0 51-32 51-76 0-42-9-74-50-73" id="aU"/><path d="M101-234c-31-9-42 10-38 44h38v23H63V0H32v-167H5v-23h27c-7-52 17-82 69-68v24" id="aV"/><g id="w"><use transform="matrix(0.07222222222222222,0,0,0.07222222222222222,0,0)" xlink:href="#at"/><use transform="matrix(0.07222222222222222,0,0,0.07222222222222222,21.59444444444444,0)" xlink:href="#au"/><use transform="matrix(0.07222222222222222,0,0,0.07222222222222222,36.038888888888884,0)" xlink:href="#aU"/><use transform="matrix(0.07222222222222222,0,0,0.07222222222222222,50.48333333333333,0)" xlink:href="#ak"/><use transform="matrix(0.07222222222222222,0,0,0.07222222222222222,56.18888888888888,0)" xlink:href="#aV"/><use transform="matrix(0.07222222222222222,0,0,0.07222222222222222,63.411111111111104,0)" xlink:href="#ak"/><use transform="matrix(0.07222222222222222,0,0,0.07222222222222222,69.11666666666666,0)" xlink:href="#al"/><use transform="matrix(0.07222222222222222,0,0,0.07222222222222222,82.11666666666666,0)" xlink:href="#ai"/></g><path fill="#333" d="M67-125c0 53 21 87 73 88 37 1 54-22 65-47l45 17C233-25 199 4 140 4 58 4 20-42 15-125 8-235 124-281 211-232c18 10 29 29 36 50l-46 12c-8-25-30-41-62-41-52 0-71 34-72 86" id="aW"/><g id="x"><use transform="matrix(0.04938271604938272,0,0,0.04938271604938272,0,0)" xlink:href="#aW"/><use transform="matrix(0.04938271604938272,0,0,0.04938271604938272,12.790123456790125,0)" xlink:href="#aE"/><use transform="matrix(0.04938271604938272,0,0,0.04938271604938272,17.7283950617284,0)" xlink:href="#aC"/><use transform="matrix(0.04938271604938272,0,0,0.04938271604938272,22.66666666666667,0)" xlink:href="#aD"/><use transform="matrix(0.04938271604938272,0,0,0.04938271604938272,32.543209876543216,0)" xlink:href="#aF"/></g><path fill="#333" d="M135-194c52 0 70 43 70 98 0 56-19 99-73 100-30 1-46-15-58-35L72 0H24l1-261h50v104c11-23 29-37 60-37zM114-30c31 0 40-27 40-66 0-37-7-63-39-63s-41 28-41 65c0 36 8 64 40 64" id="aX"/><g id="y"><use transform="matrix(0.04938271604938272,0,0,0.04938271604938272,0,0)" xlink:href="#aX"/><use transform="matrix(0.04938271604938272,0,0,0.04938271604938272,10.814814814814815,0)" xlink:href="#aA"/><use transform="matrix(0.04938271604938272,0,0,0.04938271604938272,21.62962962962963,0)" xlink:href="#aQ"/><use transform="matrix(0.04938271604938272,0,0,0.04938271604938272,27.506172839506174,0)" xlink:href="#aQ"/><use transform="matrix(0.04938271604938272,0,0,0.04938271604938272,33.382716049382715,0)" xlink:href="#aA"/><use transform="matrix(0.04938271604938272,0,0,0.04938271604938272,44.19753086419753,0)" xlink:href="#aI"/><use transform="matrix(0.04938271604938272,0,0,0.04938271604938272,55.01234567901235,0)" xlink:href="#aP"/></g><path fill="#333" d="M220-157c-53 9-28 100-34 157h-49v-107c1-27-5-49-29-50C55-147 81-57 75 0H25l-1-190h47c2 12-1 28 3 38 10-53 101-56 108 0 13-22 24-43 59-42 82 1 51 116 57 194h-49v-107c-1-25-5-48-29-50" id="aY"/><path fill="#333" d="M121-226c-27-7-43 5-38 36h38v33H83V0H34v-157H6v-33h28c-9-59 32-81 87-68v32" id="aZ"/><g id="z"><use transform="matrix(0.04938271604938272,0,0,0.04938271604938272,0,0)" xlink:href="#aY"/><use transform="matrix(0.04938271604938272,0,0,0.04938271604938272,15.80246913580247,0)" xlink:href="#aA"/><use transform="matrix(0.04938271604938272,0,0,0.04938271604938272,26.617283950617285,0)" xlink:href="#aO"/><use transform="matrix(0.04938271604938272,0,0,0.04938271604938272,37.4320987654321,0)" xlink:href="#aC"/><use transform="matrix(0.04938271604938272,0,0,0.04938271604938272,42.370370370370374,0)" xlink:href="#aZ"/><use transform="matrix(0.04938271604938272,0,0,0.04938271604938272,48.24691358024692,0)" xlink:href="#aC"/><use transform="matrix(0.04938271604938272,0,0,0.04938271604938272,53.18518518518519,0)" xlink:href="#aD"/><use transform="matrix(0.04938271604938272,0,0,0.04938271604938272,63.061728395061735,0)" xlink:href="#aN"/></g><path fill="#333" d="M137-138c1-29-70-34-71-4 15 46 118 7 119 86 1 83-164 76-172 9l43-7c4 19 20 25 44 25 33 8 57-30 24-41C81-84 22-81 20-136c-2-80 154-74 161-7" id="ba"/><path fill="#333" d="M128 0H69L1-190h53L99-40l48-150h52" id="bb"/><g id="A"><use transform="matrix(0.04938271604938272,0,0,0.04938271604938272,0,0)" xlink:href="#ba"/><use transform="matrix(0.04938271604938272,0,0,0.04938271604938272,9.876543209876544,0)" xlink:href="#aN"/><use transform="matrix(0.04938271604938272,0,0,0.04938271604938272,19.75308641975309,0)" xlink:href="#aE"/><use transform="matrix(0.04938271604938272,0,0,0.04938271604938272,24.69135802469136,0)" xlink:href="#bb"/><use transform="matrix(0.04938271604938272,0,0,0.04938271604938272,34.567901234567906,0)" xlink:href="#aN"/></g><g id="B"><use transform="matrix(0.07222222222222222,0,0,0.07222222222222222,0,0)" xlink:href="#at"/><use transform="matrix(0.07222222222222222,0,0,0.07222222222222222,21.59444444444444,0)" xlink:href="#ay"/><use transform="matrix(0.07222222222222222,0,0,0.07222222222222222,36.038888888888884,0)" xlink:href="#ap"/><use transform="matrix(0.07222222222222222,0,0,0.07222222222222222,50.48333333333333,0)" xlink:href="#am"/></g><g id="C"><use transform="matrix(0.07222222222222222,0,0,0.07222222222222222,0,0)" xlink:href="#al"/><use transform="matrix(0.07222222222222222,0,0,0.07222222222222222,12.999999999999998,0)" xlink:href="#au"/><use transform="matrix(0.07222222222222222,0,0,0.07222222222222222,27.444444444444443,0)" xlink:href="#ap"/><use transform="matrix(0.07222222222222222,0,0,0.07222222222222222,41.888888888888886,0)" xlink:href="#aw"/><use transform="matrix(0.07222222222222222,0,0,0.07222222222222222,49.11111111111111,0)" xlink:href="#ay"/><use transform="matrix(0.07222222222222222,0,0,0.07222222222222222,63.55555555555555,0)" xlink:href="#av"/><use transform="matrix(0.07222222222222222,0,0,0.07222222222222222,76.55555555555554,0)" xlink:href="#aw"/><use transform="matrix(0.07222222222222222,0,0,0.07222222222222222,83.77777777777777,0)" xlink:href="#am"/><use transform="matrix(0.07222222222222222,0,0,0.07222222222222222,98.22222222222221,0)" xlink:href="#ai"/><use transform="matrix(0.07222222222222222,0,0,0.07222222222222222,112.66666666666666,0)" xlink:href="#ar"/><use transform="matrix(0.07222222222222222,0,0,0.07222222222222222,118.3722222222222,0)" xlink:href="#ay"/></g><g id="D"><use transform="matrix(0.04938271604938272,0,0,0.04938271604938272,0,0)" xlink:href="#aO"/><use transform="matrix(0.04938271604938272,0,0,0.04938271604938272,10.814814814814815,0)" xlink:href="#aP"/><use transform="matrix(0.04938271604938272,0,0,0.04938271604938272,20.69135802469136,0)" xlink:href="#ba"/><use transform="matrix(0.04938271604938272,0,0,0.04938271604938272,30.567901234567906,0)" xlink:href="#aQ"/><use transform="matrix(0.04938271604938272,0,0,0.04938271604938272,36.44444444444445,0)" xlink:href="#aM"/><use transform="matrix(0.04938271604938272,0,0,0.04938271604938272,43.35802469135803,0)" xlink:href="#aA"/></g><path fill="#333" d="M85 4C-2 5 27-109 22-190h50c7 57-23 150 33 157 60-5 35-97 40-157h50l1 190h-47c-2-12 1-28-3-38-12 25-28 42-61 42" id="bc"/><g id="E"><use transform="matrix(0.04938271604938272,0,0,0.04938271604938272,0,0)" xlink:href="#ba"/><use transform="matrix(0.04938271604938272,0,0,0.04938271604938272,9.876543209876544,0)" xlink:href="#bc"/></g><g id="F"><use transform="matrix(0.04938271604938272,0,0,0.04938271604938272,0,0)" xlink:href="#bc"/><use transform="matrix(0.04938271604938272,0,0,0.04938271604938272,10.814814814814815,0)" xlink:href="#aI"/></g><g id="G"><use transform="matrix(0.04938271604938272,0,0,0.04938271604938272,0,0)" xlink:href="#aD"/><use transform="matrix(0.04938271604938272,0,0,0.04938271604938272,9.876543209876544,0)" xlink:href="#aA"/><use transform="matrix(0.04938271604938272,0,0,0.04938271604938272,20.69135802469136,0)" xlink:href="#aI"/><use transform="matrix(0.04938271604938272,0,0,0.04938271604938272,31.506172839506174,0)" xlink:href="#aQ"/><use transform="matrix(0.04938271604938272,0,0,0.04938271604938272,37.38271604938272,0)" xlink:href="#aN"/><use transform="matrix(0.04938271604938272,0,0,0.04938271604938272,47.25925925925927,0)" xlink:href="#aQ"/><use transform="matrix(0.04938271604938272,0,0,0.04938271604938272,53.135802469135804,0)" xlink:href="#aQ"/><use transform="matrix(0.04938271604938272,0,0,0.04938271604938272,59.01234567901235,0)" xlink:href="#aA"/></g><g id="H"><use transform="matrix(0.07222222222222222,0,0,0.07222222222222222,0,0)" xlink:href="#aT"/><use transform="matrix(0.07222222222222222,0,0,0.07222222222222222,17.333333333333332,0)" xlink:href="#av"/><use transform="matrix(0.07222222222222222,0,0,0.07222222222222222,30.333333333333332,0)" xlink:href="#as"/><use transform="matrix(0.07222222222222222,0,0,0.07222222222222222,44.77777777777777,0)" xlink:href="#au"/><use transform="matrix(0.07222222222222222,0,0,0.07222222222222222,59.222222222222214,0)" xlink:href="#aj"/><use transform="matrix(0.07222222222222222,0,0,0.07222222222222222,67.81666666666666,0)" xlink:href="#aw"/><use transform="matrix(0.07222222222222222,0,0,0.07222222222222222,75.03888888888889,0)" xlink:href="#ai"/></g><g id="I"><use transform="matrix(0.07222222222222222,0,0,0.07222222222222222,0,0)" xlink:href="#al"/><use transform="matrix(0.07222222222222222,0,0,0.07222222222222222,12.999999999999998,0)" xlink:href="#au"/><use transform="matrix(0.07222222222222222,0,0,0.07222222222222222,27.444444444444443,0)" xlink:href="#ap"/><use transform="matrix(0.07222222222222222,0,0,0.07222222222222222,41.888888888888886,0)" xlink:href="#aw"/><use transform="matrix(0.07222222222222222,0,0,0.07222222222222222,49.11111111111111,0)" xlink:href="#ai"/><use transform="matrix(0.07222222222222222,0,0,0.07222222222222222,63.55555555555555,0)" xlink:href="#aw"/><use transform="matrix(0.07222222222222222,0,0,0.07222222222222222,70.77777777777777,0)" xlink:href="#aw"/><use transform="matrix(0.07222222222222222,0,0,0.07222222222222222,77.99999999999999,0)" xlink:href="#ak"/></g><g id="J"><use transform="matrix(0.07222222222222222,0,0,0.07222222222222222,0,0)" xlink:href="#aT"/><use transform="matrix(0.07222222222222222,0,0,0.07222222222222222,17.333333333333332,0)" xlink:href="#ar"/><use transform="matrix(0.07222222222222222,0,0,0.07222222222222222,23.038888888888888,0)" xlink:href="#ak"/><use transform="matrix(0.07222222222222222,0,0,0.07222222222222222,28.74444444444444,0)" xlink:href="#ax"/><use transform="matrix(0.07222222222222222,0,0,0.07222222222222222,50.338888888888896,0)" xlink:href="#ak"/><use transform="matrix(0.07222222222222222,0,0,0.07222222222222222,56.044444444444444,0)" xlink:href="#ap"/><use transform="matrix(0.07222222222222222,0,0,0.07222222222222222,70.48888888888888,0)" xlink:href="#ai"/></g><g id="K"><use transform="matrix(0.04938271604938272,0,0,0.04938271604938272,0,0)" xlink:href="#aP"/><use transform="matrix(0.04938271604938272,0,0,0.04938271604938272,9.876543209876544,0)" xlink:href="#aE"/><use transform="matrix(0.04938271604938272,0,0,0.04938271604938272,14.814814814814817,0)" xlink:href="#aC"/><use transform="matrix(0.04938271604938272,0,0,0.04938271604938272,19.75308641975309,0)" xlink:href="#aY"/><use transform="matrix(0.04938271604938272,0,0,0.04938271604938272,35.55555555555556,0)" xlink:href="#aC"/><use transform="matrix(0.04938271604938272,0,0,0.04938271604938272,40.49382716049383,0)" xlink:href="#aI"/><use transform="matrix(0.04938271604938272,0,0,0.04938271604938272,51.308641975308646,0)" xlink:href="#aN"/></g><g id="L"><use transform="matrix(0.04938271604938272,0,0,0.04938271604938272,0,0)" xlink:href="#aP"/><use transform="matrix(0.04938271604938272,0,0,0.04938271604938272,9.876543209876544,0)" xlink:href="#ba"/><use transform="matrix(0.04938271604938272,0,0,0.04938271604938272,19.75308641975309,0)" xlink:href="#aB"/><use transform="matrix(0.04938271604938272,0,0,0.04938271604938272,30.567901234567906,0)" xlink:href="#aA"/><use transform="matrix(0.04938271604938272,0,0,0.04938271604938272,41.38271604938272,0)" xlink:href="#aM"/><use transform="matrix(0.04938271604938272,0,0,0.04938271604938272,48.296296296296305,0)" xlink:href="#aQ"/><use transform="matrix(0.04938271604938272,0,0,0.04938271604938272,54.17283950617284,0)" xlink:href="#aN"/></g><g id="M"><use transform="matrix(0.04938271604938272,0,0,0.04938271604938272,0,0)" xlink:href="#aP"/><use transform="matrix(0.04938271604938272,0,0,0.04938271604938272,9.876543209876544,0)" xlink:href="#ba"/><use transform="matrix(0.04938271604938272,0,0,0.04938271604938272,19.75308641975309,0)" xlink:href="#aQ"/><use transform="matrix(0.04938271604938272,0,0,0.04938271604938272,25.629629629629633,0)" xlink:href="#aP"/><use transform="matrix(0.04938271604938272,0,0,0.04938271604938272,35.50617283950618,0)" xlink:href="#aM"/><use transform="matrix(0.04938271604938272,0,0,0.04938271604938272,42.41975308641976,0)" xlink:href="#aI"/><use transform="matrix(0.04938271604938272,0,0,0.04938271604938272,53.23456790123457,0)" xlink:href="#aA"/></g><g id="N"><use transform="matrix(0.04938271604938272,0,0,0.04938271604938272,0,0)" xlink:href="#aN"/><use transform="matrix(0.04938271604938272,0,0,0.04938271604938272,9.876543209876544,0)" xlink:href="#aE"/><use transform="matrix(0.04938271604938272,0,0,0.04938271604938272,14.814814814814817,0)" xlink:href="#aE"/><use transform="matrix(0.04938271604938272,0,0,0.04938271604938272,19.75308641975309,0)" xlink:href="#aN"/></g><g id="O"><use transform="matrix(0.04938271604938272,0,0,0.04938271604938272,0,0)" xlink:href="#aQ"/><use transform="matrix(0.04938271604938272,0,0,0.04938271604938272,5.8765432098765435,0)" xlink:href="#aN"/><use transform="matrix(0.04938271604938272,0,0,0.04938271604938272,15.753086419753087,0)" xlink:href="#aX"/><use transform="matrix(0.04938271604938272,0,0,0.04938271604938272,26.567901234567902,0)" xlink:href="#aP"/><use transform="matrix(0.04938271604938272,0,0,0.04938271604938272,36.44444444444445,0)" xlink:href="#aE"/><use transform="matrix(0.04938271604938272,0,0,0.04938271604938272,41.38271604938272,0)" xlink:href="#aE"/><use transform="matrix(0.04938271604938272,0,0,0.04938271604938272,46.320987654320994,0)" xlink:href="#aN"/></g><g id="P"><use transform="matrix(0.04938271604938272,0,0,0.04938271604938272,0,0)" xlink:href="#aC"/><use transform="matrix(0.04938271604938272,0,0,0.04938271604938272,4.938271604938272,0)" xlink:href="#aY"/><use transform="matrix(0.04938271604938272,0,0,0.04938271604938272,20.74074074074074,0)" xlink:href="#aB"/><use transform="matrix(0.04938271604938272,0,0,0.04938271604938272,31.555555555555557,0)" xlink:href="#aA"/><use transform="matrix(0.04938271604938272,0,0,0.04938271604938272,42.370370370370374,0)" xlink:href="#aM"/><use transform="matrix(0.04938271604938272,0,0,0.04938271604938272,49.283950617283956,0)" xlink:href="#aQ"/><use transform="matrix(0.04938271604938272,0,0,0.04938271604938272,55.1604938271605,0)" xlink:href="#aN"/></g><path d="M1034 0L896-382H333L196 0H0l510-1349h217L1228 0h-194zM847-531c-77-225-157-447-231-674-69 231-154 451-232 674h463" id="bd"/><use transform="matrix(0.032552083333333336,0,0,0.032552083333333336,0,0)" xlink:href="#bd" id="Q"/><path d="M136-208V0H84v-208H4v-40h212v40h-80" id="be"/><path d="M110-194c64 0 96 36 96 99 0 64-35 99-97 99-61 0-95-36-95-99 0-62 34-99 96-99zm-1 164c35 0 45-28 45-65 0-40-10-65-43-65-34 0-45 26-45 65 0 36 10 65 43 65" id="bf"/><path d="M135-150c-39-12-60 13-60 57V0H25l-1-190h47c2 13-1 29 3 40 6-28 27-53 61-41v41" id="bg"/><path d="M135-194c87-1 58 113 63 194h-50c-7-57 23-157-34-157-59 0-34 97-39 157H25l-1-190h47c2 12-1 28 3 38 12-26 28-41 61-42" id="bh"/><path d="M133-34C117-15 103 5 69 4 32 3 11-16 11-54c-1-60 55-63 116-61 1-26-3-47-28-47-18 1-26 9-28 27l-52-2c7-38 36-58 82-57s74 22 75 68l1 82c-1 14 12 18 25 15v27c-30 8-71 5-69-32zm-48 3c29 0 43-24 42-57-32 0-66-3-65 30 0 17 8 27 23 27" id="bi"/><g id="R"><use transform="matrix(0.04938271604938272,0,0,0.04938271604938272,0,0)" xlink:href="#be"/><use transform="matrix(0.04938271604938272,0,0,0.04938271604938272,9.481481481481481,0)" xlink:href="#bf"/><use transform="matrix(0.04938271604938272,0,0,0.04938271604938272,20.296296296296298,0)" xlink:href="#bg"/><use transform="matrix(0.04938271604938272,0,0,0.04938271604938272,27.20987654320988,0)" xlink:href="#bh"/><use transform="matrix(0.04938271604938272,0,0,0.04938271604938272,38.0246913580247,0)" xlink:href="#bi"/></g><path d="M25-224v-37h50v37H25zM25 0v-190h50V0H25" id="bj"/><path d="M88-194c31-1 46 15 58 34l-1-101h50l1 261h-48c-2-10 0-23-3-31C134-8 116 4 84 4 32 4 16-41 15-95c0-56 19-97 73-99zm17 164c33 0 40-30 41-66 1-37-9-64-41-64s-38 30-39 65c0 43 13 65 39 65" id="bk"/><path d="M185-48c-13 30-37 53-82 52C43 2 14-33 14-96s30-98 90-98c62 0 83 45 84 108H66c0 31 8 55 39 56 18 0 30-7 34-22zm-45-69c5-46-57-63-70-21-2 6-4 13-4 21h74" id="bl"/><path d="M115-3C79 11 28 4 28-45v-112H4v-33h27l15-45h31v45h36v33H77v99c-1 23 16 31 38 25v30" id="bm"/><g id="S"><use transform="matrix(0.04938271604938272,0,0,0.04938271604938272,0,0)" xlink:href="#bj"/><use transform="matrix(0.04938271604938272,0,0,0.04938271604938272,4.938271604938272,0)" xlink:href="#bh"/><use transform="matrix(0.04938271604938272,0,0,0.04938271604938272,15.753086419753087,0)" xlink:href="#bk"/><use transform="matrix(0.04938271604938272,0,0,0.04938271604938272,26.567901234567902,0)" xlink:href="#bj"/><use transform="matrix(0.04938271604938272,0,0,0.04938271604938272,31.506172839506174,0)" xlink:href="#bl"/><use transform="matrix(0.04938271604938272,0,0,0.04938271604938272,41.38271604938272,0)" xlink:href="#bm"/><use transform="matrix(0.04938271604938272,0,0,0.04938271604938272,47.25925925925927,0)" xlink:href="#bg"/><use transform="matrix(0.04938271604938272,0,0,0.04938271604938272,54.17283950617284,0)" xlink:href="#bf"/></g><path fill="#333" d="M199 0l-22-63H83L61 0H9l90-248h61L250 0h-51zm-33-102l-36-108c-10 38-24 72-36 108h72" id="bn"/><g id="T"><use transform="matrix(0.04938271604938272,0,0,0.04938271604938272,0,0)" xlink:href="#bn"/><use transform="matrix(0.04938271604938272,0,0,0.04938271604938272,12.790123456790125,0)" xlink:href="#aI"/><use transform="matrix(0.04938271604938272,0,0,0.04938271604938272,23.60493827160494,0)" xlink:href="#aI"/><use transform="matrix(0.04938271604938272,0,0,0.04938271604938272,34.41975308641975,0)" xlink:href="#bc"/><use transform="matrix(0.04938271604938272,0,0,0.04938271604938272,45.23456790123457,0)" xlink:href="#aE"/><use transform="matrix(0.04938271604938272,0,0,0.04938271604938272,50.17283950617284,0)" xlink:href="#aE"/><use transform="matrix(0.04938271604938272,0,0,0.04938271604938272,55.111111111111114,0)" xlink:href="#aN"/></g><path d="M177-190C167-65 218 103 67 71c-23-6-38-20-44-43l32-5c15 47 100 32 89-28v-30C133-14 115 1 83 1 29 1 15-40 15-95c0-56 16-97 71-98 29-1 48 16 59 35 1-10 0-23 2-32h30zM94-22c36 0 50-32 50-73 0-42-14-75-50-75-39 0-46 34-46 75s6 73 46 73" id="bo"/><g id="U"><use transform="matrix(0.07222222222222222,0,0,0.07222222222222222,0,0)" xlink:href="#aR"/><use transform="matrix(0.07222222222222222,0,0,0.07222222222222222,17.333333333333332,0)" xlink:href="#bo"/><use transform="matrix(0.07222222222222222,0,0,0.07222222222222222,31.777777777777775,0)" xlink:href="#bo"/><use transform="matrix(0.07222222222222222,0,0,0.07222222222222222,46.222222222222214,0)" xlink:href="#ak"/><use transform="matrix(0.07222222222222222,0,0,0.07222222222222222,51.92777777777777,0)" xlink:href="#am"/><use transform="matrix(0.07222222222222222,0,0,0.07222222222222222,66.3722222222222,0)" xlink:href="#ap"/><use transform="matrix(0.07222222222222222,0,0,0.07222222222222222,80.81666666666665,0)" xlink:href="#bo"/><use transform="matrix(0.07222222222222222,0,0,0.07222222222222222,95.26111111111109,0)" xlink:href="#ak"/></g><path d="M30-248c87 1 191-15 191 75 0 78-77 80-158 76V0H30v-248zm33 125c57 0 124 11 124-50 0-59-68-47-124-48v98" id="bp"/><g id="V"><use transform="matrix(0.07222222222222222,0,0,0.07222222222222222,0,0)" xlink:href="#bp"/><use transform="matrix(0.07222222222222222,0,0,0.07222222222222222,17.333333333333332,0)" xlink:href="#au"/><use transform="matrix(0.07222222222222222,0,0,0.07222222222222222,31.777777777777775,0)" xlink:href="#as"/><use transform="matrix(0.07222222222222222,0,0,0.07222222222222222,46.222222222222214,0)" xlink:href="#am"/><use transform="matrix(0.07222222222222222,0,0,0.07222222222222222,60.666666666666664,0)" xlink:href="#as"/></g><g id="W"><use transform="matrix(0.07222222222222222,0,0,0.07222222222222222,0,0)" xlink:href="#aV"/><use transform="matrix(0.07222222222222222,0,0,0.07222222222222222,7.222222222222221,0)" xlink:href="#ay"/><use transform="matrix(0.07222222222222222,0,0,0.07222222222222222,21.666666666666664,0)" xlink:href="#ay"/><use transform="matrix(0.07222222222222222,0,0,0.07222222222222222,36.11111111111111,0)" xlink:href="#aU"/><use transform="matrix(0.07222222222222222,0,0,0.07222222222222222,50.55555555555555,0)" xlink:href="#an"/><use transform="matrix(0.07222222222222222,0,0,0.07222222222222222,65,0)" xlink:href="#ai"/><use transform="matrix(0.07222222222222222,0,0,0.07222222222222222,79.44444444444444,0)" xlink:href="#al"/><use transform="matrix(0.07222222222222222,0,0,0.07222222222222222,92.44444444444443,0)" xlink:href="#aS"/></g><path d="M63-220v92h138v28H63V0H30v-248h175v28H63" id="bq"/><g id="X"><use transform="matrix(0.07222222222222222,0,0,0.07222222222222222,0,0)" xlink:href="#bq"/><use transform="matrix(0.07222222222222222,0,0,0.07222222222222222,15.816666666666665,0)" xlink:href="#ak"/><use transform="matrix(0.07222222222222222,0,0,0.07222222222222222,21.52222222222222,0)" xlink:href="#ar"/><use transform="matrix(0.07222222222222222,0,0,0.07222222222222222,27.227777777777774,0)" xlink:href="#aw"/><use transform="matrix(0.07222222222222222,0,0,0.07222222222222222,34.449999999999996,0)" xlink:href="#aj"/><use transform="matrix(0.07222222222222222,0,0,0.07222222222222222,43.04444444444444,0)" xlink:href="#ai"/></g><g id="Y"><use transform="matrix(0.07222222222222222,0,0,0.07222222222222222,0,0)" xlink:href="#al"/><use transform="matrix(0.07222222222222222,0,0,0.07222222222222222,12.999999999999998,0)" xlink:href="#au"/><use transform="matrix(0.07222222222222222,0,0,0.07222222222222222,27.444444444444443,0)" xlink:href="#ap"/><use transform="matrix(0.07222222222222222,0,0,0.07222222222222222,41.888888888888886,0)" xlink:href="#aw"/><use transform="matrix(0.07222222222222222,0,0,0.07222222222222222,49.11111111111111,0)" xlink:href="#ai"/><use transform="matrix(0.07222222222222222,0,0,0.07222222222222222,63.55555555555555,0)" xlink:href="#aw"/><use transform="matrix(0.07222222222222222,0,0,0.07222222222222222,70.77777777777777,0)" xlink:href="#aw"/><use transform="matrix(0.07222222222222222,0,0,0.07222222222222222,77.99999999999999,0)" xlink:href="#ak"/></g><path d="M108 0H70L1-190h34L89-25l56-165h34" id="br"/><g id="Z"><use transform="matrix(0.07222222222222222,0,0,0.07222222222222222,0,0)" xlink:href="#br"/><use transform="matrix(0.07222222222222222,0,0,0.07222222222222222,12.999999999999998,0)" xlink:href="#ai"/><use transform="matrix(0.07222222222222222,0,0,0.07222222222222222,27.444444444444443,0)" xlink:href="#ar"/><use transform="matrix(0.07222222222222222,0,0,0.07222222222222222,33.15,0)" xlink:href="#ak"/><use transform="matrix(0.07222222222222222,0,0,0.07222222222222222,38.855555555555554,0)" xlink:href="#aU"/><use transform="matrix(0.07222222222222222,0,0,0.07222222222222222,53.3,0)" xlink:href="#ak"/></g><path fill="#333" d="M12 0v-35l95-120H19v-35h142v35L67-36h103V0H12" id="bs"/><g id="aa"><use transform="matrix(0.04938271604938272,0,0,0.04938271604938272,0,0)" xlink:href="#aH"/><use transform="matrix(0.04938271604938272,0,0,0.04938271604938272,11.851851851851853,0)" xlink:href="#aP"/><use transform="matrix(0.04938271604938272,0,0,0.04938271604938272,21.7283950617284,0)" xlink:href="#aE"/><use transform="matrix(0.04938271604938272,0,0,0.04938271604938272,26.666666666666668,0)" xlink:href="#aP"/><use transform="matrix(0.04938271604938272,0,0,0.04938271604938272,36.543209876543216,0)" xlink:href="#bs"/><use transform="matrix(0.04938271604938272,0,0,0.04938271604938272,45.4320987654321,0)" xlink:href="#aC"/><use transform="matrix(0.04938271604938272,0,0,0.04938271604938272,50.370370370370374,0)" xlink:href="#aA"/><use transform="matrix(0.04938271604938272,0,0,0.04938271604938272,61.18518518518519,0)" xlink:href="#aI"/><use transform="matrix(0.04938271604938272,0,0,0.04938271604938272,72,0)" xlink:href="#aN"/></g><g id="ab"><use transform="matrix(0.04938271604938272,0,0,0.04938271604938272,0,0)" xlink:href="#aZ"/><use transform="matrix(0.04938271604938272,0,0,0.04938271604938272,5.8765432098765435,0)" xlink:href="#aC"/><use transform="matrix(0.04938271604938272,0,0,0.04938271604938272,10.814814814814817,0)" xlink:href="#aE"/><use transform="matrix(0.04938271604938272,0,0,0.04938271604938272,15.753086419753087,0)" xlink:href="#aP"/></g><g id="ac"><use transform="matrix(0.07222222222222222,0,0,0.07222222222222222,0,0)" xlink:href="#ah"/><use transform="matrix(0.07222222222222222,0,0,0.07222222222222222,18.705555555555552,0)" xlink:href="#aj"/><use transform="matrix(0.07222222222222222,0,0,0.07222222222222222,27.299999999999997,0)" xlink:href="#ay"/><use transform="matrix(0.07222222222222222,0,0,0.07222222222222222,41.74444444444444,0)" xlink:href="#ai"/></g><g id="ad"><use transform="matrix(0.07222222222222222,0,0,0.07222222222222222,0,0)" xlink:href="#al"/><use transform="matrix(0.07222222222222222,0,0,0.07222222222222222,12.999999999999998,0)" xlink:href="#au"/><use transform="matrix(0.07222222222222222,0,0,0.07222222222222222,27.444444444444443,0)" xlink:href="#ap"/><use transform="matrix(0.07222222222222222,0,0,0.07222222222222222,41.888888888888886,0)" xlink:href="#aw"/><use transform="matrix(0.07222222222222222,0,0,0.07222222222222222,49.11111111111111,0)" xlink:href="#ai"/><use transform="matrix(0.07222222222222222,0,0,0.07222222222222222,63.55555555555555,0)" xlink:href="#aw"/><use transform="matrix(0.07222222222222222,0,0,0.07222222222222222,70.77777777777777,0)" xlink:href="#aw"/><use transform="matrix(0.07222222222222222,0,0,0.07222222222222222,77.99999999999999,0)" xlink:href="#au"/></g><g id="ae"><use transform="matrix(0.07222222222222222,0,0,0.07222222222222222,0,0)" xlink:href="#ap"/><use transform="matrix(0.07222222222222222,0,0,0.07222222222222222,14.444444444444443,0)" xlink:href="#am"/><use transform="matrix(0.07222222222222222,0,0,0.07222222222222222,28.888888888888886,0)" xlink:href="#au"/><use transform="matrix(0.07222222222222222,0,0,0.07222222222222222,43.33333333333333,0)" xlink:href="#br"/><use transform="matrix(0.07222222222222222,0,0,0.07222222222222222,56.33333333333333,0)" xlink:href="#au"/></g><g id="af"><use transform="matrix(0.04938271604938272,0,0,0.04938271604938272,0,0)" xlink:href="#aN"/><use transform="matrix(0.04938271604938272,0,0,0.04938271604938272,9.876543209876544,0)" xlink:href="#aJ"/><use transform="matrix(0.04938271604938272,0,0,0.04938271604938272,20.69135802469136,0)" xlink:href="#aJ"/><use transform="matrix(0.04938271604938272,0,0,0.04938271604938272,31.506172839506174,0)" xlink:href="#aC"/><use transform="matrix(0.04938271604938272,0,0,0.04938271604938272,36.44444444444445,0)" xlink:href="#bc"/><use transform="matrix(0.04938271604938272,0,0,0.04938271604938272,47.25925925925927,0)" xlink:href="#aI"/><use transform="matrix(0.04938271604938272,0,0,0.04938271604938272,58.074074074074076,0)" xlink:href="#aJ"/><use transform="matrix(0.04938271604938272,0,0,0.04938271604938272,68.8888888888889,0)" xlink:href="#aC"/></g><path d="M802-711c201 25 350 118 350 331C1152-95 921 0 634 0H162v-1349c401 9 908-74 908 327 0 184-111 275-268 311zm-224-69c174-2 300-51 300-218 0-163-124-198-302-198H353v416h225zM353-153c281-2 612 44 606-244-5-271-329-233-606-234v478" id="bt"/><use transform="matrix(0.032552083333333336,0,0,0.032552083333333336,0,0)" xlink:href="#bt" id="ag"/></defs></g></svg>